<?xml version="1.0" standalone="no"?>
<!DOCTYPE svg PUBLIC "-//W3C//DTD SVG 1.1//EN" "http://www.w3.org/Graphics/SVG/1.1/DTD/svg11.dtd">
<svg xmlns="http://www.w3.org/2000/svg">
<metadata>Copyright (C) 2021 by original authors @ fontello.com</metadata>
<defs>
<font id="fl-custom-icon-font" horiz-adv-x="1000" >
<font-face font-family="fl-custom-icon-font" font-weight="400" font-stretch="normal" units-per-em="1000" ascent="850" descent="-150" />
<missing-glyph horiz-adv-x="1000" />
<glyph glyph-name="like" unicode="&#xe800;" d="M927 705c-49 56-118 87-193 87-105 0-172-63-209-116-10-14-18-27-25-40-7 13-15 26-25 40-37 53-104 116-209 116-75 0-144-31-193-87-47-53-73-125-73-201 0-84 33-161 102-244 63-74 152-150 256-239 39-33 79-67 121-104l2-2c5-4 12-7 19-7s14 3 19 7l2 2c42 37 82 71 121 104 104 89 193 165 256 239 70 83 102 160 102 244 0 76-26 148-73 201z m-323-639c-33-29-68-58-104-90-36 32-70 61-104 90-203 173-337 287-337 438 0 62 20 120 58 162 38 43 91 67 149 67 80 0 132-49 161-91 27-37 40-75 45-89 4-12 15-20 28-20 13 0 24 8 28 20 5 14 18 52 45 89 29 42 81 91 161 91 58 0 111-24 149-67 38-42 58-100 58-162 0-151-134-265-337-438z" horiz-adv-x="1000" />

<glyph glyph-name="share" unicode="&#xe801;" d="M792 208c-57 0-108-28-141-70l-275 153c7 19 10 39 10 59 0 21-3 41-10 59l274 154c33-43 84-71 142-71 99 0 179 81 179 179s-80 179-179 179-179-80-179-179c0-20 4-40 11-59l-275-153c-32 43-84 70-142 70-98 0-178-80-178-179s80-179 179-179c57 0 109 28 142 71l274-154c-6-18-10-38-10-59 0-99 80-179 179-179s178 80 178 179-80 179-179 179z m0 586c68 0 123-55 123-123s-55-123-123-123-122 55-122 123 55 123 122 123z m-584-566c-68 0-123 55-123 122s55 123 123 123 122-55 122-123-55-122-122-122z m584-322c-67 0-122 55-122 123 0 68 55 123 122 123s123-55 123-123c0-68-55-123-123-123z" horiz-adv-x="1000" />

<glyph glyph-name="012-car-black-side-view-pointing-left" unicode="&#xe802;" d="M175 318c-40 0-72-32-72-72 0-3 0-6 1-9 4-35 34-62 71-62 37 0 68 29 71 65 0 2 0 4 0 6 0 40-32 72-71 72z m-36-45l14-14c-1-2-2-4-2-7h-21c1 8 4 15 9 21z m-9-33h21c1-2 1-4 3-6l-15-15c-5 6-8 13-9 21z m38-38c-7 1-14 4-20 9l14 14c2-1 4-2 6-2l0-21 0 0z m0 68c-2 0-4-1-6-2l-14 14c6 5 13 8 20 9v-21z m13 21c8-1 15-4 21-9l-15-14c-2 1-4 2-6 2v21z m0-89v21c2 0 4 1 6 2l15-14c-6-5-13-8-21-9z m29 17l-14 15c1 2 2 4 2 6h21c-1-8-4-15-9-21z m-12 33c0 3-1 5-2 7l15 14c4-6 7-13 8-21h-21z m595 70c-40 0-72-32-72-71 0-3 0-6 1-9 4-35 34-63 71-63 37 0 68 29 71 66 0 2 0 4 0 6 0 39-32 71-71 71z m-36-44l14-15c-1-2-2-4-2-6h-21c1 8 4 15 9 21z m-9-33h21c0-3 1-5 2-7l-14-14c-5 6-8 13-9 21z m38-39c-7 2-14 5-20 9l14 15c2-1 4-2 6-3v-21l0 0z m0 69c-2-1-4-2-6-3l-14 15c6 4 13 7 20 8v-20z m13 20c8-1 15-4 21-8l-15-15c-2 1-4 2-6 3v20z m0-89v21c2 1 4 2 6 3l15-15c-6-4-13-7-21-9z m29 18l-14 14c1 2 2 4 2 7h21c-1-8-4-15-9-21z m-12 33c0 2-1 4-2 6l14 15c5-6 8-13 9-21h-21z m171 55l-5 3v54c0 13-4 27-11 38l-42 61c-15 22-38 36-64 40-85 11-286 33-419-1-99-25-217-100-217-100s-152-25-185-43c-26-14-41-32-44-58-1-12 1-28 4-42 3-16 16-29 32-32l55-10c-1 4-2 9-3 13 0 4 0 8 0 11 0 48 39 87 87 87 48 0 87-39 87-87 0-2-1-5-1-7 0-6-2-12-3-18h453c-2 6-4 12-5 19 0 4 0 7 0 11 0 48 39 87 87 87 48 0 87-39 87-87 0-3-1-5-1-7 0-8-2-16-5-23h1l105 32c9 3 16 11 18 21l2 16c1 9-4 18-13 22z m-300 191v-87l-125-6v94c0 0 1 0 2 0 43 0 85 0 123-1z m-353-70v10c0 0 78 48 191 59l-11-95-180-9c0 0 9 4 9 23 0 0-1 9-9 12z m377-16v45l23-44-23-1z m177 14c-7-4-16-6-24-6l-103-5-43 81c79-3 138-9 150-12 18-5 35-30 34-43 0-6-7-11-14-15z" horiz-adv-x="1000" />

<glyph glyph-name="015-car-1" unicode="&#xe803;" d="M904 434l52 6c25 3 44 25 44 51 0 27-23 50-50 50h-36c-22 0-40-14-48-33l-49 109c-19 40-56 70-99 80-73 17-363 17-436 0-43-10-80-40-99-80l-49-109c-8 19-26 33-48 33h-35c-28 0-51-23-51-50 0-26 19-48 45-51l51-6-49-49c-24-23-35-57-31-91l17-117c4-31 20-57 42-76v-53c0-32 26-58 58-58h96c32 0 58 26 58 58v26h427v-26c0-32 25-58 57-58h96c32 0 58 26 58 58v53c22 19 38 45 42 76l17 117c4 34-7 68-31 91l-49 49z m-55-322h-698c-38 0-72 28-79 65h856c-7-37-41-65-79-65z m-124 166l20-62h-27l-19 62h26z m-66 0l19-62h-356l19 62h318z m-377-62h-27l20 62h26l-19-62z m-67 0h-149l-9 62h178l-20-62z m570 0l-20 62h178l-9-62h-149z m117 275c0 6 5 12 12 12h36c6 0 12-6 12-12 0-7-5-12-11-13l-49-6v19z m-611 169c66 15 352 15 418 0 17-4 32-11 45-22-91 16-417 16-508 0 13 11 28 18 45 22z m-79-73c11 6 24 10 38 13 82 15 418 15 500 0 14-3 27-7 38-13l60-130h-695l59 130z m-174-96c0 6 6 12 13 12h35c7 0 12-6 12-12v-19l-49 6c-6 1-11 6-11 13z m97-72h730l61-61c12-11 19-26 20-42h-892c1 16 8 31 20 42l61 61z m113-371c0-11-8-20-19-20h-96c-11 0-19 9-19 20v32c12-4 24-6 37-6h97v-26z m638 0c0-11-8-20-19-20h-96c-10 0-19 9-19 20v26h97c13 0 26 2 37 6v-32z" horiz-adv-x="1000" />

<glyph glyph-name="cancel-1" unicode="&#xe804;" d="M0 90q0 36 26 62l195 195-195 196q-26 25-26 61t26 61 61 25 61-25l196-196 195 196q25 25 61 25t61-25 25-61-25-61l-195-196 195-195q25-26 25-62t-25-61q-25-25-61-25t-61 25l-195 195-196-195q-25-25-61-25t-61 25q-26 26-26 61z" horiz-adv-x="686.5" />

<glyph glyph-name="magnifying-glass-2" unicode="&#xe805;" d="M991-99l-243 243c65 75 105 173 105 280 0 235-191 426-426 426-236 0-427-191-427-426s192-427 427-427c106 0 204 40 279 105l243-243c6-6 14-9 21-9s16 3 21 9c12 11 12 30 0 42z m-931 523c0 202 164 366 366 366 203 0 367-164 367-366s-164-367-367-367c-202 0-366 164-366 367z" horiz-adv-x="1000" />

<glyph glyph-name="search-1" unicode="&#xe806;" d="M400 100c85 0 163 31 223 82l272-272c6-6 14-9 22-9s16 3 23 9c12 13 12 33 0 45l-272 272c51 60 82 139 82 223 0 193-157 350-350 350-192 0-350-158-350-350 0-193 158-350 350-350z m0 636c158 0 286-129 286-286 0-158-128-286-286-286-158 0-286 129-286 286 0 157 129 286 286 286z" horiz-adv-x="1000" />

<glyph glyph-name="left-quotes-sign-1" unicode="&#xe807;" d="M0 156c0-131 107-238 238-238 132 0 238 107 238 238s-106 238-238 238c-27 0-53-5-77-13 54 307 293 506 71 342-246-180-232-560-232-567 0 0 0 0 0 0z m524 0c0-131 107-238 238-238s238 107 238 238-107 238-238 238c-27 0-53-5-77-13 53 307 293 506 71 342-246-180-232-560-232-567 0 0 0 0 0 0z" horiz-adv-x="1000" />

<glyph glyph-name="two-quotes" unicode="&#xe808;" d="M192 784c-106 0-192-88-192-197 0-109 86-197 192-197 192 0 64-382-192-382v-92c457 0 635 868 192 868z m553 0c-106 0-192-88-192-197 0-109 86-197 192-197 191 0 63-382-192-382v-92c456 0 635 868 192 868z" horiz-adv-x="1000" />

<glyph glyph-name="right-quotes-symbol" unicode="&#xe809;" d="M1000 544c0 0 0 0 0 0 0 131-107 238-238 238s-238-107-238-238c0-132 106-238 238-238 27 0 53 5 77 13-54-307-293-506-71-342 246 180 232 560 232 567z m-762-238c27 0 53 5 77 13-53-307-293-506-71-342 246 180 232 560 232 567 0 0 0 0 0 0 0 131-106 238-238 238-131 0-238-107-238-238 0-132 107-238 238-238z" horiz-adv-x="1000" />

<glyph glyph-name="right-quotation-sign" unicode="&#xe80a;" d="M979 429c-53 190-184 328-311 328-11 0-21-1-31-3-5-1-10-4-13-9-3-5-4-11-3-16l26-94c3-9 12-15 21-15l2 0c47 0 133-70 177-228 2-6 4-12 5-19-49 24-108 30-161 15-121-33-191-159-158-279 28-98 117-166 219-166 20 0 41 3 61 9 79 22 139 88 168 185 26 88 25 194-2 292z m-836 328c-11 0-21-1-31-3-5-1-10-4-13-9-3-5-4-11-3-16l26-94c3-9 12-15 21-15l2 0c47 0 133-70 177-228 2-6 4-12 5-19-49 24-108 30-161 15-121-33-191-159-158-279 28-98 117-166 219-166 20 0 41 3 61 9 79 22 139 88 168 185 26 88 25 194-2 292-53 190-184 328-311 328z" horiz-adv-x="1000" />

<glyph glyph-name="left-quotes-sign-3" unicode="&#xe80b;" d="M0 156c0-131 107-238 238-238 132 0 238 107 238 238s-106 238-238 238c-27 0-53-5-77-13 54 307 293 506 71 342-246-180-232-560-232-567 0 0 0 0 0 0z m524 0c0-131 107-238 238-238s238 107 238 238-107 238-238 238c-27 0-53-5-77-13 53 307 293 506 71 342-246-180-232-560-232-567 0 0 0 0 0 0z" horiz-adv-x="1000" />

<glyph glyph-name="quotes" unicode="&#xe80c;" d="M220 444c120 0 218-98 218-219s-98-218-218-218-219 97-219 218l-1 31c0 242 196 437 437 437v-124c-83 0-162-33-221-92-11-11-21-23-31-36 11 2 23 3 35 3z m562 0c120 0 218-98 218-219s-98-218-218-218-219 97-219 218l-1 31c0 242 196 437 437 437v-124c-83 0-162-33-221-92-11-11-21-23-31-36 11 2 23 3 35 3z" horiz-adv-x="1000" />

<glyph glyph-name="liked-1" unicode="&#xe80d;" d="M998 538c-14 160-128 277-270 277-95 0-182-51-231-133-48 83-131 133-225 133-142 0-256-117-270-277-1-7-6-45 8-106 21-87 69-167 139-231l348-316 354 316c70 64 118 143 139 231 14 61 10 99 8 106z" horiz-adv-x="1000" />

<glyph glyph-name="010-cabrio-car" unicode="&#xe80e;" d="M255 279c0 41-33 74-73 74-41 0-74-33-74-74 0-3 1-6 1-9 5-36 35-64 73-64 38 0 69 29 73 67 0 2 0 4 0 6z m-110 28l15-15c-1-2-2-4-3-7h-21c1 8 4 16 9 22z m-9-34h21c1-3 2-5 3-7l-15-15c-5 7-8 14-9 22z m39-39c-8 1-15 4-21 8l15 15c2-1 4-2 6-2l0-21 0 0z m0 70c-2-1-4-2-6-3l-15 15c6 4 13 8 21 9v-21z m13 21c8-1 15-4 21-9l-14-15c-3 1-5 2-7 3v21z m0-91v21c2 0 4 1 6 2l15-15c-6-4-13-7-21-8z m30 17l-15 15c2 2 2 4 3 7h21c-1-8-4-16-9-22z m-12 34c0 3-1 5-3 7l15 15c5-6 8-14 9-22l-21 0 0 0z m572 68c-40 0-73-33-73-74 0-3 0-6 1-9 4-36 35-64 72-64 39 0 70 29 73 67 1 2 1 4 1 6 0 41-33 74-74 74z m-36-46l15-15c-2-2-2-4-3-7h-21c1 8 4 16 9 22z m-9-34h21c1-3 2-5 3-7l-15-15c-5 7-8 14-9 22z m39-39c-8 1-15 4-21 8l15 15c2-1 4-2 6-2l0-21 0 0z m0 70c-2-1-4-2-6-3l-15 15c6 4 13 8 21 9v-21z m13 21c8-1 15-4 21-9l-15-15c-2 1-4 2-6 3v21z m0-91v21c2 0 4 1 6 2l15-15c-6-4-13-7-21-8z m30 17l-15 15c1 2 2 4 3 7h21c-1-8-4-16-9-22z m-12 34c-1 3-2 5-3 7l15 15c5-6 8-14 9-22h-21z m182 81c-84 73-184 76-184 76l-58 18c-8 3-17-2-19-10l-5-14-106-8-2 21c-1 7-7 12-13 11l-7 0c-7 0-13-6-13-12v-24l-159-8c3 12-4 19-4 19l66 32c4 2 6 6 7 10 0 5-3 9-7 11l-7 4c-6 3-12 3-17 1-25-9-96-38-170-73-108-7-228-28-257-47-29-19-32-42-29-66 3-34 29-62 63-68l48-8 1 0c-7 11-13 24-14 38-1 3-1 7-1 10 0 46 37 84 84 84 46 0 83-38 83-84 0-2 0-5 0-7-1-14-6-28-14-39l449 4 6 0c-5 10-9 20-11 32 0 3 0 7 0 10 0 46 37 84 83 84 47 0 84-38 84-84 0-2 0-5 0-7-1-10-4-20-8-29l103 4 7 8c17 19 30 43 35 69 3 15-2 32-14 42z" horiz-adv-x="1000" />

<glyph glyph-name="011-pick-up" unicode="&#xe80f;" d="M179 342c-44 0-79-35-79-79 0-4 0-7 0-10 5-39 39-70 79-70 42 0 76 32 80 73 0 2 0 4 0 7 0 44-36 79-80 79z m-40-49l17-16c-2-3-3-5-3-7h-23c1 8 4 16 9 23z m-9-37h23c0-3 1-5 3-7l-17-16c-5 6-8 14-9 23z m42-43c-8 1-16 5-23 10l16 16c3-1 5-2 7-3v-23z m0 76c-2 0-4-1-7-3l-16 17c7 5 15 8 23 9l0-23 0 0z m14 23c9-1 17-4 23-9l-16-17c-2 2-4 3-7 3l0 23 0 0z m0-99v23c3 1 5 2 7 3l16-16c-6-5-14-8-23-10z m33 20l-16 16c1 2 2 4 3 7h23c-2-9-5-17-10-23z m-13 37c-1 2-2 4-3 7l16 16c5-7 8-15 10-24h-23l0 1z m547 72c-44 0-80-35-80-79 0-4 1-7 1-10 5-39 38-70 79-70 42 0 76 32 79 73 0 2 1 4 1 7 0 44-36 79-80 79z m-40-49l16-16c-1-3-2-5-3-7h-22c1 8 4 16 9 23z m-9-37h23c0-3 1-5 2-7l-16-16c-5 6-8 14-9 23z m42-43c-9 1-16 5-23 10l16 16c2-1 5-2 7-3v-23z m0 76c-2 0-5-1-7-3l-16 17c7 5 14 8 23 9l0-23 0 0z m14 23c9-1 16-4 23-9l-16-17c-2 2-5 3-7 3l0 23 0 0z m0-99v23c2 1 5 2 7 3l16-16c-7-5-14-8-23-10z m33 20l-16 16c1 2 2 4 3 7h22c-1-9-4-17-9-23z m-13 37c-1 2-2 4-3 7l16 16c5-7 8-15 9-24h-22l0 1z m207 50h-16l-4 94c0 6-5 11-11 10l-216-1v78c0 7-6 13-14 13h-10c-7 0-13-6-13-13v-79l-29 0-6 69c-1 15-13 26-28 26h-263c-9 0-18-4-25-10l-88-85-170-18c-23-2-44-14-59-33l-18-22c-13-8-20-24-16-39l5-24c2-10 10-18 21-20l58-13c-1 4-1 7-1 10 0 52 43 95 95 95 53 0 96-43 96-95 0-3 0-6-1-8 0-1 0-2 0-2h384c0 3 0 7 0 10 0 52 42 95 95 95 53 0 95-43 95-95 0-3 0-6 0-8 0-1 0-2 0-2h48l44 24h47c7 0 13 6 13 13v17c0 7-6 13-13 13z m-654 97c0 0 6 14 0 29l35 43c2 3 5 4 8 4h105v-76l-148 0 0 0z m186 0v76h95c6 0 10-4 11-10l2-66h-108z" horiz-adv-x="1000" />

<glyph glyph-name="magnifying-glass-1" unicode="&#xe810;" d="M991-99l-243 243c65 75 105 173 105 280 0 235-191 426-426 426-236 0-427-191-427-426s192-427 427-427c106 0 204 40 279 105l243-243c6-6 14-9 21-9s16 3 21 9c12 11 12 30 0 42z m-931 523c0 202 164 366 366 366 203 0 367-164 367-366s-164-367-367-367c-202 0-366 164-366 367z" horiz-adv-x="1000" />

<glyph glyph-name="013-timing-belt" unicode="&#xe811;" d="M213 215c-84 0-152-68-152-152 0-84 68-152 152-152 84 0 152 68 152 152 0 84-68 152-152 152z m0-262c-61 0-110 49-110 110 0 61 49 110 110 110 61 0 110-49 110-110 0-61-49-110-110-110z m0 164c-30 0-54-24-54-54s24-55 54-55 55 25 55 55-25 54-55 54z m0-67c-7 0-13 6-13 13s6 13 13 13 13-6 13-13-6-13-13-13z m123 551c42 0 77 35 77 78 0 43-35 78-77 78s-78-35-78-78c0-43 35-78 78-78z m0 114c19 0 36-16 36-36s-17-36-36-36-37 16-37 36 17 36 37 36z m600-416c38 24 64 66 64 114 0 47-25 89-62 112l-517 302 0 0c-25 15-54 23-85 23-76 0-139-49-162-116-1-3-167-618-168-623l0 0 0 0c-4-16-6-32-6-48 0-118 96-213 213-213 40 0 78 11 110 31 3 1 612 418 613 418z m-98-16l-424-290c8 22 12 46 12 70 0 117-96 213-213 213-49 0-95-17-131-46l100 374c27-57 86-96 154-96 94 0 171 77 171 171 0 19-4 38-10 55l332-194c-55-16-95-67-95-127 0-64 44-117 104-130z m29 38c-51 0-92 41-92 92 0 50 41 91 92 91s91-41 91-91c0-51-41-92-91-92z m-531 487c71 0 129-58 129-129s-58-129-129-129-130 58-130 129 58 129 130 129z m-294-745c0 94 77 171 171 171s171-77 171-171-76-171-171-171-171 76-171 171z" horiz-adv-x="1000" />

<glyph glyph-name="014-key" unicode="&#xe812;" d="M923 772c-50 51-117 78-188 78-70 0-137-27-187-78l-101-101c-59-59-59-155 0-214l1-1-67-67c-1-1-2-2-2-3l-35-55-55-34c-2-2-4-4-6-7l-35-54-54-35c-3-2-5-4-7-6l-35-55-54-35c-2-1-5-3-6-6l-35-54-46-27c-7-4-11-12-11-20l5-122c1-12 10-21 21-21l122-5c0 0 1 0 1 0 6 0 11 2 15 6l442 442 1-1c30-30 68-45 107-45 39 0 78 15 107 45l102 101c103 103 103 271 0 374z m-840-761c3 1 6 4 8 6l35 55 54 35c2 1 5 3 6 6l35 54 54 35c3 2 5 4 7 7l35 54 54 35c2 1 5 4 6 6l37 56 65 65 50-50-477-478-5 0-3 90 39 24z m58-118l-31 2 450 449 15-16-434-435z m751 535l-101-101c-42-42-111-42-153 0l-161 161c-20 20-31 47-31 76 0 29 11 56 31 77l102 101c41 42 97 65 156 65 60 0 115-23 157-65l15 15-15-15c86-86 86-227 0-314z m-41 270c-46 47-118 62-179 36-6-3-11-9-13-16s1-14 6-19l183-185c4-4 9-7 15-7 1 0 3 1 4 1 7 1 13 6 16 12 26 61 14 131-32 178z m1-127l-130 132c36 4 73-9 98-35 26-26 37-62 32-97z" horiz-adv-x="1000" />

<glyph glyph-name="play-button--1" unicode="&#xe813;" d="M997 404c0 0 0 0 0 0-27 253-241 446-497 446-276 0-500-224-500-500 0-31 3-62 9-92 1-8 9-13 17-12 8 2 13 9 11 17-5 29-8 58-8 87 0 260 212 471 471 471 241 0 442-181 468-420 0 0 0 0 0 0 2-17 3-34 3-51 0-259-211-471-471-471-202 0-381 129-446 320-3 8-11 12-19 10-7-3-11-11-9-19 69-203 259-340 474-340 276 0 500 224 500 500 0 18-1 36-3 54z m-642 191c6 0 13-2 18-5l42-24c7-4 15-1 19 6 4 7 2 16-5 20l-41 23c-10 6-22 9-33 9-36 0-66-30-66-66v-419c0-37 30-67 66-67 11 0 23 3 33 9l368 210c21 12 33 33 33 57 0 24-12 46-33 58l-268 152c-7 4-16 2-20-5-4-7-1-16 6-20l268-153c11-6 18-18 18-32 0-13-7-25-18-32l-369-209c-5-4-12-5-18-5-18 0-37 14-37 37v419c0 23 19 37 37 37z" horiz-adv-x="1000" />

<glyph glyph-name="016-fix-sign" unicode="&#xe814;" d="M904 338l52 6c25 3 44 25 44 50 0 28-23 51-51 51h-35c-22 0-40-14-48-33l-49 109c-19 40-56 70-99 80-2 1-4 1-6 1-5 113-98 204-212 204-114 0-207-91-211-204-3 0-5 0-7-1-43-10-80-40-99-80l-49-109c-8 19-26 33-48 33h-35c-28 0-51-23-51-51 0-25 19-47 45-50l51-6-49-49c-24-24-35-58-31-91l17-118c4-30 20-56 42-75v-53c0-32 26-58 58-58h96c32 0 58 26 58 58v26h427v-26c0-32 25-58 57-58h96c32 0 58 26 58 58v53c22 19 38 45 42 75l17 118c4 33-7 67-31 91l-49 49z m-55-322h-698c-38 0-72 28-79 65h856c-7-37-41-65-79-65z m-124 166l20-63h-27l-19 63h26z m-66 0l19-63h-356l19 63h318z m-377-63h-27l20 63h26l-19-63z m-67 0h-149l-9 63h178l-20-63z m570 0l-20 63h178l-9-63h-149z m117 275c0 7 5 13 12 13h36c6 0 12-6 12-13 0-6-5-11-11-12l-49-6v18z m-148 148c-12 2-28 4-48 5 2 6 3 11 3 17 0 0 0 0 0 0 17-4 32-12 45-22z m-254 226c96 0 173-78 173-173s-77-174-173-174-173 78-173 174 77 173 173 173z m-209-204c0 0 0 0 0 0 0-6 2-11 3-17-20-1-36-3-48-5 13 10 28 18 45 22z m-79-74c11 6 24 11 38 13 12 3 31 5 56 7 33-75 108-127 194-127 87 0 161 52 194 127 25-2 44-4 56-7 14-2 27-7 38-13l60-129h-695l59 129z m-174-96c0 7 6 13 13 13h35c7 0 12-6 12-13v-18l-49 6c-6 1-11 6-11 12z m97-71h730l61-61c12-11 19-26 20-42h-892c1 16 8 31 20 42l61 61z m113-371c0-11-8-20-19-20h-96c-11 0-19 9-19 20v32c12-4 24-6 37-6h97v-26z m638 0c0-11-8-20-19-20h-96c-10 0-19 9-19 20v26h97c13 0 26 2 37 6v-32z m-418 530c3-6 10-9 17-9 0 0 1 0 1 0 8 0 14 6 17 13l70 213c3 10-2 21-12 24-10 4-21-2-24-12l-57-172-36 64c-5 9-17 13-26 7-9-5-13-16-7-26l57-102z" horiz-adv-x="1000" />

<glyph glyph-name="017-gas" unicode="&#xe815;" d="M938 780c-19 0-34-15-34-33v-38c-4 2-9 3-13 3-28 0-50-23-50-50v-122c0-15 6-28 16-37v-318c0-18-15-33-33-33-18 0-33 15-33 33v125c0 52-40 94-92 99v341c0 55-44 100-99 100h-471c-55 0-100-45-100-100v-800c0-55 45-100 100-100h471c55 0 99 45 99 100v391c15-3 25-16 25-31v-125c0-55 45-100 100-100 55 0 100 45 100 100v318c10 9 16 22 16 37v53c17 1 31 15 31 33v121c0 18-15 33-33 33z m-342-319h-463v281h463v-281z" horiz-adv-x="1000" />

<glyph glyph-name="018-speedometer" unicode="&#xe816;" d="M596 189c-1 4-2 8-4 12l-235 444c-7 13-23 19-37 14-14-4-23-19-20-33l92-493c0-4 2-8 4-11 1-4 2-8 3-12 15-42 56-71 101-71 12 0 23 2 35 6 26 9 48 28 61 53 12 25 14 53 5 80-2 4-4 8-5 11z m-96 438c-17 0-30-13-30-30 0-16 13-30 30-30 242 0 439-193 439-431 0-17 14-30 31-30 16 0 30 13 30 30 0 271-224 491-500 491z m-314-109c-118-94-186-233-186-382 0-17 14-30 30-30 17 0 31 13 31 30 0 131 59 253 163 336 13 10 15 29 5 42-11 12-30 14-43 4z" horiz-adv-x="1000" />

<glyph glyph-name="019-fuel-station-pump" unicode="&#xe817;" d="M497 850h-438c-25 0-45-20-45-46v-936h529v936c0 26-20 46-46 46z m-20-350h-397v261h397v-261z m276-650c-108 0-174 75-180 205-3 52 10 108 24 168 10 45 20 92 25 140 5 48-2 64-7 69-9 11-36 11-62 11h-13v63h13c38 0 81 0 109-31 22-25 30-62 24-119-6-52-17-100-27-147-13-56-25-108-23-151 5-96 44-144 117-144 81 0 122 50 122 151 0 83-26 147-43 190l-7 17c-18 47-20 88-22 152-2 61-1 127 16 192 17 65 52 97 111 149l14 13 43-47-15-13c-54-49-79-72-91-119-15-57-16-117-14-173 2-62 4-95 18-131l6-16c18-45 47-119 47-214 0-135-69-215-185-215z m82 563l-1 64c0 0 49 1 77 1 1 11 1 29 1 47v10c0 76-12 86-26 98-5 4-10 8-15 14l47 43c3-4 6-6 9-9 27-23 48-48 48-146v-9c0-36 0-56-3-71-5-26-23-40-49-40-20 0-88-2-88-2z" horiz-adv-x="1000" />

<glyph glyph-name="play-button" unicode="&#xe818;" d="M933 600c-67 116-175 198-304 233-129 34-263 17-379-50-115-67-198-175-233-304-34-129-17-263 50-379 67-116 175-198 304-233 43-11 86-17 130-17 86 0 172 23 249 67 116 67 198 175 233 304 34 129 17 263-50 379z m0-366c-31-115-106-212-209-272-104-60-224-75-340-45-115 31-212 106-272 209-60 104-75 224-44 340 31 115 105 212 208 272 69 40 146 60 223 60 39 0 78-5 117-15 115-31 212-106 272-209 60-104 75-224 45-340z m-193 163l-321 186c-18 10-38 10-55 0-17-10-27-28-27-47v-371c0-20 10-38 27-48 9-5 18-7 27-7 10 0 19 2 28 7l321 186c17 10 27 27 27 47 0 20-10 37-27 47z m-26-49l-322-186c0 0-1 0-2 0-1 1-1 2-1 3v371c0 0 0 1 1 2 1 0 1 0 1 0 1 0 1 0 1 0l322-186c0 0 1-1 1-2 0-1-1-2-1-2z m93 239c-62 80-155 134-255 148-14 2-27-8-29-22-2-15 8-28 22-30 87-12 168-58 221-127 5-7 13-10 21-10 5 0 11 1 16 5 11 9 13 25 4 36z" horiz-adv-x="1000" />

<glyph glyph-name="cart-header" unicode="&#xe819;" d="M999 590l-68-307a156 156 0 0 0-152-123 39 39 0 0 0 0 79 78 78 0 0 1 76 61l68 306a39 39 0 1 0 76-16z m-220-509h-511a39 39 0 0 0-39 39c0 0-1 0-1 1s1 0 1 1a39 39 0 0 0 39 39h316a39 39 0 0 1 0 78h-287l-47 425v1a214 214 0 0 1-211 185 39 39 0 0 1 0-78 136 136 0 0 0 134-117l46-427a117 117 0 0 1-69-106v-2a117 117 0 0 1 118-118h16a114 114 0 0 1-7-37 115 115 0 1 1 231 0 114 114 0 0 1-6 37h168a114 114 0 0 1-6-37 115 115 0 1 1 115 116z m-386-153a37 37 0 1 0 37 37 37 37 0 0 0-37-37z m386 0a37 37 0 1 0 37 37 37 37 0 0 0-37-37z" horiz-adv-x="1000" />

<glyph glyph-name="cancel" unicode="&#xe81a;" d="M523 350l472 473c7 6 7 16 0 22-6 7-16 7-22 0l-473-472-472 472c-7 7-17 6-23 0-6-6-6-16 0-22l472-473-472-472c-7-7-7-17 0-23s16-7 22-1c1 1 1 1 1 1l472 472 473-472c6-6 16-6 22 0 6 7 6 16 0 23l-472 472z" horiz-adv-x="1000" />

<glyph glyph-name="cancel-2" unicode="&#xe81b;" d="M1000 803l-21 23-479-454-478 454-22-23 477-453-477-453 22-23 478 455 479-455 21 23-477 453z" horiz-adv-x="1000" />

<glyph glyph-name="minus-symbol" unicode="&#xe81c;" d="M35 314c-19 0-35 17-35 36 0 20 16 36 35 36h929c20 0 36-16 36-36 0-19-16-36-36-36h-929z" horiz-adv-x="1000" />

<glyph glyph-name="plus-symbol" unicode="&#xe81d;" d="M36 314c-20 0-36 17-36 36 0 20 16 36 36 36h428v428c0 20 16 36 36 36 20 0 35-16 35-36v-428h429c20 0 36-16 36-36 0-19-16-36-36-36h-429v-428c0-20-15-36-35-36-20 0-36 16-36 36v428h-428z" horiz-adv-x="1000" />

<glyph glyph-name="minus-sign-of-a-line-in-horizontal-position" unicode="&#xe81e;" d="M1000 350c0-48-39-87-87-87h-825c-25 0-46 9-62 25-16 16-26 38-26 62 0 48 39 88 88 88h825c48 0 87-40 87-88z" horiz-adv-x="1000" />

<glyph glyph-name="plus-sign" unicode="&#xe81f;" d="M1000 350c0-48-39-87-87-87h-325v-326c0-48-40-87-88-87-24 0-46 10-62 26-16 15-25 37-25 61l0 326h-325c-25 0-46 9-62 25-16 16-26 38-26 62 0 48 39 88 88 88h325v325c0 48 39 87 87 87 48 0 88-39 88-87v-325h325c48 0 87-40 87-88z" horiz-adv-x="1000" />

<glyph glyph-name="search-header" unicode="&#xe820;" d="M422 850a441 441 0 1 1 423-440 432 432 0 0 1-423 440z m0-799a359 359 0 1 0 345 359 352 352 0 0 0-345-359z m526-132l-224 234a38 38 0 0 1-55 0 42 42 0 0 1 0-58l223-233a38 38 0 0 1 56 0 42 42 0 0 1 0 57z" horiz-adv-x="959" />

<glyph glyph-name="garbage" unicode="&#xe821;" d="M774 688h-548c-29 0-52-24-52-52v-42h652v42c0 28-23 52-52 52z m-537-726c5-63 58-112 121-112h284c63 0 116 49 121 112l49 586h-624l49-586z m170 800c0 23 18 42 42 42h102c24 0 43-19 43-42v-28h45v28c0 49-39 88-88 88h-102c-49 0-88-39-88-88v-28h46v28z" horiz-adv-x="1000" />

<glyph glyph-name="heart-outline-1" unicode="&#xe822;" d="M919 706c-53 53-122 82-197 82-74 0-144-29-196-82l-26-26-26 26c-52 53-122 82-196 82-74 0-144-29-197-82-108-108-108-284 0-393l388-388c7-6 15-10 23-12 3 0 6-1 8-1 11 0 22 5 31 13l388 388c108 109 108 285 0 393z m-61-332l-358-358-358 358c-75 75-75 197 0 272 36 36 84 56 136 56 51 0 99-20 135-56l57-57c16-16 44-16 60 0l57 57c36 36 84 56 135 56 52 0 100-20 136-56 75-75 75-197 0-272z" horiz-adv-x="1000" />

<glyph glyph-name="like-2" unicode="&#xe823;" d="M998 538c-14 160-128 277-270 277-95 0-182-51-231-133-48 83-131 133-225 133-142 0-256-117-270-277-1-7-6-45 8-106 21-87 69-167 139-231l348-316 354 316c70 64 118 143 139 231 14 61 10 99 8 106z m-46-97c-18-80-62-153-126-211l-329-293-322 293c-65 58-108 131-127 211-14 58-8 90-8 91l0 2c12 140 110 242 232 242 90 0 170-55 207-144l18-42 18 42c37 88 121 144 213 144 122 0 220-102 232-244 0-1 6-33-8-91z" horiz-adv-x="1000" />

<glyph glyph-name="magnifying-glass" unicode="&#xe824;" d="M668 736c-153 152-401 152-554 0-152-153-152-401 0-554 136-136 348-150 500-44 4-15 11-30 23-42l222-222c32-32 85-32 117 0 32 32 32 85 0 117l-222 222c-12 12-27 19-42 23 106 152 92 364-44 500z m-70-484c-114-114-300-114-413 0-114 114-114 300 0 413 113 114 299 114 413 0 114-113 114-299 0-413z" horiz-adv-x="1000" />

<glyph glyph-name="search" unicode="&#xe825;" d="M400 100c85 0 163 31 223 82l272-272c6-6 14-9 22-9s16 3 23 9c12 13 12 33 0 45l-272 272c51 60 82 139 82 223 0 193-157 350-350 350-192 0-350-158-350-350 0-193 158-350 350-350z m0 636c158 0 286-129 286-286 0-158-128-286-286-286-158 0-286 129-286 286 0 157 129 286 286 286z" horiz-adv-x="1000" />

<glyph glyph-name="001-steering-wheel" unicode="&#xe826;" d="M500-150c276 0 500 224 500 500s-224 500-500 500-500-224-500-500c0-276 224-500 500-500z m0 967c258 0 467-209 467-467s-209-467-467-467-467 209-467 467c1 258 209 466 467 467z m0 0m0-884c230 0 417 187 417 417s-187 417-417 417-417-187-417-417c1-230 187-416 417-417z m-370 318l102 28c40 10 83 2 116-23 33-25 52-65 52-106v-170c-132 36-235 139-270 271z m303-278v177c0 52-24 101-65 132-41 32-94 42-144 29l-101-27c-8 42-8 85-1 127 79 28 225 72 378 72s300-44 379-72c6-42 6-85-1-127l-102 27c-50 13-103 3-144-29-41-31-65-80-65-132v-177c-44-8-90-8-134 0z m167 7v170c0 41 19 81 52 106 33 25 76 33 116 23l102-28c-35-132-138-235-270-271z m-100 753c174 0 325-116 370-284-119 42-244 65-370 68-126-3-251-26-370-68 45 168 197 284 370 284z m0 0m117-383c0 64-53 117-117 117s-117-53-117-117 53-117 117-117c64 0 117 53 117 117z m-200 0c0 46 37 83 83 83s83-37 83-83-37-83-83-83c-46 0-83 37-83 83z m0 0m133 0c0 28-22 50-50 50s-50-22-50-50 22-50 50-50 50 22 50 50z m-67 0c0 9 8 17 17 17s17-8 17-17-8-17-17-17-17 8-17 17z m0 0" horiz-adv-x="1000" />

<glyph glyph-name="002-steering-wheel-1" unicode="&#xe827;" d="M116 294c19-1 37 9 46 25 11 0 21-1 30-1 8-1 16-2 24-2 15-1 30 5 42 15 15-21 36-36 60-44 1 0 3-1 5-1 57-1 117-2 178-2s121 1 178 2c2 0 3 1 5 1 24 8 45 23 60 44 11-10 27-16 42-15 8 0 16 1 24 2 9 0 19 1 30 1 8-15 24-25 41-25 18-1 34 7 44 22 84 124 100 282 43 421-8 18-16 35-26 52-17 31-48 50-83 52-120 5-240 8-358 8-118 0-238-3-358-8-35-2-67-21-83-52-10-17-18-34-26-52-57-139-41-297 43-421 9-13 23-22 39-22z m10 353l4 11c12 33 24 62 47 62 1 0 2 0 3 0 11-1 18-14 20-25 3-15 3-30 0-45-5-24-16-29-24-31-9-3-20-3-29 0-23 5-26 10-26 13 1 5 3 10 5 15z m16-124c6-1 13-3 20-6 18-5 33-19 39-37-23-13-41-34-50-58-2-5-4-10-6-15-11 26-21 53-29 80-7 30-2 36-1 37 0 0 5 4 27-1z m53-172c-8 1-17 2-28 2 0 4-2 8-3 11l0 1c1 3 2 6 3 9 6 12 11 24 16 37 5 15 16 28 30 36 1-6 3-12 6-19 4-15 9-31 16-50 1-5 4-10 6-15-9-15-17-15-46-12z m612 0c-30-3-38-3-46 12 2 5 4 10 6 15 6 19 12 35 16 50 2 7 4 13 6 19 14-8 24-21 30-36 4-13 10-25 15-37 2-3 3-6 4-9l0-1c-2-3-3-7-4-11-10-1-19-1-27-2z m65 307l4-11c2-5 4-10 4-15 0-3-2-8-25-13-10-2-20-2-30 0-8 2-18 7-23 31-3 15-3 30-1 45 2 11 10 24 21 25 1 0 2 0 3 0 22 0 35-29 47-62z m-32-141c7 3 13 5 20 6 22 5 26 1 27 1 0-1 6-7-2-37-7-27-17-54-28-80-3 4-5 9-6 15-9 24-27 45-50 58 6 18 20 32 39 37z m57-183c-3-4-8-7-13-7-9 0-16 5-17 13-1 4 0 7 1 10l4 8c18 39 34 80 46 121 5 21 10 51-7 68-11 10-25 14-39 12 0 10-1 19-3 29 17 4 46 15 45 46-1 9-3 17-7 25l-4 11c-2 5-4 10-6 16 8 5 18 11 29 16 6 3 11 5 16 7 47-125 30-264-45-375z m-808 439c11 20 32 33 55 34 120 6 240 9 357 9 117 0 237-3 356-9 24-1 45-14 56-34 6-11 11-22 17-33-6-2-13-5-19-8-11-5-20-11-29-16-11 25-37 39-64 37-26-4-46-26-50-52-3-19-2-38 1-57 8-40 30-53 48-58 6-1 12-2 19-2 2-11 3-21 3-32-3-1-6-2-9-3-38-13-53-35-66-71-4-12-8-25-13-40-4-15-9-31-15-50-3-6-5-13-8-19-10-23-29-41-52-49-56-2-115-2-175-2s-119 0-175 2c-23 8-42 26-52 49-3 6-6 13-8 19-6 19-11 35-15 50-5 15-9 28-13 40-13 36-28 59-66 71-3 1-6 2-9 3 0 11 1 21 3 32 6 0 13 1 19 2 17 5 40 18 48 58 3 19 4 38 0 57-3 26-23 48-50 52-26 2-52-12-64-37-8 5-18 11-28 16-7 3-13 6-19 8 5 11 11 22 17 33z m-30-64c6-2 11-4 17-7 11-5 20-11 29-16-3-6-5-11-6-16l-4-11c-4-8-6-16-7-25-2-31 28-42 45-46-2-10-3-19-4-29-14 2-28-2-38-12-17-17-12-47-7-68 12-41 27-82 46-121l0 0 3-8c2-3 2-7 2-10-2-8-10-13-18-13-5 0-9 3-12 7-75 111-92 250-46 375z m0 0m284-279c8-18 26-30 46-30h223c20 0 38 12 46 30l22 50c7 16 5 33-4 47-10 14-25 23-42 23h-266c-17 0-33-9-42-23-9-14-11-31-4-47z m11 79c3 5 8 8 14 8h266c6 0 11-3 14-8 3-5 4-11 1-16l-21-50c-3-6-9-10-16-10h-223c-6 0-12 4-15 10l-22 50c-2 5-1 11 2 16z m0 0m-70 58c0-10-8-17-17-17-9 0-17 7-17 17 0 9 8 16 17 16 9 0 17-7 17-16z m0 0m0-67c0-9-8-17-17-17-9 0-17 8-17 17 0 9 8 17 17 17 9 0 17-8 17-17z m0 0m150-17c0-9-7-17-17-17-9 0-16 8-16 17 0 9 7 17 16 17 10 0 17-8 17-17z m0 0m84 0c0-9-8-17-17-17-9 0-17 8-17 17 0 9 8 17 17 17 9 0 17-8 17-17z m0 0m-234 150c0-9-8-16-17-16-9 0-17 7-17 16 0 10 8 17 17 17 9 0 17-7 17-17z m0 0m0 67c0-9-8-16-17-16-9 0-17 7-17 16 0 9 8 17 17 17 9 0 17-8 17-17z m0 0m83-117h267c19 0 34 15 34 34v133c0 19-15 34-34 34h-267c-18 0-33-15-33-34v-133c0-19 15-34 33-34z m0 167h267v-133h-267z m0 0m384-183c0-10-7-17-16-17-10 0-17 7-17 17 0 9 7 16 17 16 9 0 16-7 16-16z m0 0m0-67c0-9-7-17-16-17-10 0-17 8-17 17 0 9 7 17 17 17 9 0 16-8 16-17z m0 0m-150-17c0-9-7-17-17-17-9 0-16 8-16 17 0 9 7 17 16 17 10 0 17-8 17-17z m0 0m150 150c0-9-7-16-16-16-10 0-17 7-17 16 0 10 7 17 17 17 9 0 16-7 16-17z m0 0m0 67c0-9-7-16-16-16-10 0-17 7-17 16 0 9 7 17 17 17 9 0 16-8 16-17z m0 0m34 67c0-9-8-17-17-17-9 0-17 8-17 17 0 9 8 17 17 17 9 0 17-8 17-17z m0 0m-535 0c0-9-7-17-16-17-10 0-17 8-17 17 0 9 7 17 17 17 9 0 16-8 16-17z m0 0m184-50h-17c-9 0-16-8-16-17 0-9 7-16 16-16h17c9 0 17 7 17 16 0 9-8 17-17 17z m0 0m150 0h-83c-9 0-17-8-17-17 0-9 8-16 17-16h83c10 0 17 7 17 16 0 9-7 17-17 17z m0 0" horiz-adv-x="1000" />

<glyph glyph-name="003-lights" unicode="&#xe828;" d="M950 850h-900c-28 0-50-22-50-50v-67c0-27 22-50 50-50h17v-111c-31-13-51-43-50-76v-559c-1-34 20-65 52-77 36-13 76-13 112 0 32 12 53 43 52 77v559c1 33-19 63-50 76v111h134v-111c-31-13-51-43-50-76v-559c-1-34 20-65 52-77 36-13 76-13 112 0 32 12 53 43 52 77v559c1 33-19 63-50 76v111h134v-111c-31-13-51-43-50-76v-559c-1-34 20-65 52-77 36-13 76-13 112 0 32 12 53 43 52 77v559c1 33-19 63-50 76v111h134v-111c-31-13-51-43-50-76v-559c-1-34 20-65 52-77 36-13 76-13 112 0 32 12 53 43 52 77v559c1 33-19 63-50 76v111h17c28 0 50 23 50 50v67c0 28-22 50-50 50z m-750-354v-559c0-20-12-38-31-46-28-10-60-10-88 0-19 8-31 26-31 46v559c0 20 12 38 31 46 3 1 6 2 9 3 23 6 47 6 70 0 3-1 6-2 9-3 19-8 31-26 31-46z m-50 85c-17 3-33 3-50 0v102h50z m300-85v-559c0-20-12-38-31-46-28-10-60-10-88 0-19 8-31 26-31 46v559c0 20 12 38 31 46 3 1 6 2 9 3 23 6 47 6 70 0 3-1 6-2 9-3 19-8 31-26 31-46z m-50 85c-17 3-33 3-50 0v102h50z m300-85v-559c0-20-12-38-31-46-28-10-60-10-88 0-19 8-31 26-31 46v559c0 20 12 38 31 46 3 1 6 2 9 3 23 6 47 6 70 0 3-1 6-2 9-3 19-8 31-26 31-46z m-50 85c-17 3-33 3-50 0v102h50z m300-85v-559c0-20-12-38-31-46-28-10-60-10-88 0-19 8-31 26-31 46v559c0 20 12 38 31 46 3 1 6 2 9 3 23 6 47 6 70 0 3-1 6-2 9-3 19-8 31-26 31-46z m-50 85c-17 3-33 3-50 0v102h50z m67 152c0-9-8-16-17-16h-900c-9 0-17 7-17 16v67c0 9 8 17 17 17h900c9 0 17-8 17-17z m0 0m-842-233c-32 0-58-26-58-58s26-59 58-59 58 26 58 59-26 58-58 58z m0-83c-14 0-25 11-25 25 0 14 11 25 25 25s25-11 25-25c0-14-11-25-25-25z m0 0m0-67c-32 0-58-26-58-58 0-33 26-59 58-59s58 26 58 59c0 32-26 58-58 58z m0-83c-14 0-25 11-25 25 0 14 11 25 25 25s25-11 25-25c0-14-11-25-25-25z m0 0m0-67c-32 0-58-26-58-59 0-32 26-58 58-58s58 26 58 58c0 33-26 59-58 59z m0-84c-14 0-25 12-25 25 0 14 11 25 25 25s25-11 25-25c0-13-11-25-25-25z m0 0m0-66c-32 0-58-26-58-59 0-32 26-58 58-58s58 26 58 58c0 33-26 59-58 59z m0-84c-14 0-25 11-25 25 0 14 11 25 25 25s25-11 25-25c0-14-11-25-25-25z m0 0m250 534c-32 0-58-26-58-58s26-59 58-59 58 26 58 59-26 58-58 58z m0-83c-14 0-25 11-25 25 0 14 11 25 25 25s25-11 25-25c0-14-11-25-25-25z m0 0m0-67c-32 0-58-26-58-58 0-33 26-59 58-59s58 26 58 59c0 32-26 58-58 58z m0-83c-14 0-25 11-25 25 0 14 11 25 25 25s25-11 25-25c0-14-11-25-25-25z m0 0m0-67c-32 0-58-26-58-59 0-32 26-58 58-58s58 26 58 58c0 33-26 59-58 59z m0-84c-14 0-25 12-25 25 0 14 11 25 25 25s25-11 25-25c0-13-11-25-25-25z m0 0m0-66c-32 0-58-26-58-59 0-32 26-58 58-58s58 26 58 58c0 33-26 59-58 59z m0-84c-14 0-25 11-25 25 0 14 11 25 25 25s25-11 25-25c0-14-11-25-25-25z m0 0m250 534c-32 0-58-26-58-58s26-59 58-59 58 26 58 59-26 58-58 58z m0-83c-14 0-25 11-25 25 0 14 11 25 25 25s25-11 25-25c0-14-11-25-25-25z m0 0m0-67c-32 0-58-26-58-58 0-33 26-59 58-59s58 26 58 59c0 32-26 58-58 58z m0-83c-14 0-25 11-25 25 0 14 11 25 25 25s25-11 25-25c0-14-11-25-25-25z m0 0m0-67c-32 0-58-26-58-59 0-32 26-58 58-58s58 26 58 58c0 33-26 59-58 59z m0-84c-14 0-25 12-25 25 0 14 11 25 25 25s25-11 25-25c0-13-11-25-25-25z m0 0m0-66c-32 0-58-26-58-59 0-32 26-58 58-58s58 26 58 58c0 33-26 59-58 59z m0-84c-14 0-25 11-25 25 0 14 11 25 25 25s25-11 25-25c0-14-11-25-25-25z m0 0m250 534c-32 0-58-26-58-58s26-59 58-59 58 26 58 59-26 58-58 58z m0-83c-14 0-25 11-25 25 0 14 11 25 25 25s25-11 25-25c0-14-11-25-25-25z m0 0m0-67c-32 0-58-26-58-58 0-33 26-59 58-59s58 26 58 59c0 32-26 58-58 58z m0-83c-14 0-25 11-25 25 0 14 11 25 25 25s25-11 25-25c0-14-11-25-25-25z m0 0m0-67c-32 0-58-26-58-59 0-32 26-58 58-58s58 26 58 58c0 33-26 59-58 59z m0-84c-14 0-25 12-25 25 0 14 11 25 25 25s25-11 25-25c0-13-11-25-25-25z m0 0m0-66c-32 0-58-26-58-59 0-32 26-58 58-58s58 26 58 58c0 33-26 59-58 59z m0-84c-14 0-25 11-25 25 0 14 11 25 25 25s25-11 25-25c0-14-11-25-25-25z m0 0m-758 817h-34c-9 0-16-7-16-16 0-9 7-17 16-17h34c9 0 16 8 16 17 0 9-7 16-16 16z m0 0m216 0h-150c-9 0-16-7-16-16 0-9 7-17 16-17h150c10 0 17 8 17 17 0 9-7 16-17 16z m0 0" horiz-adv-x="1000" />

<glyph glyph-name="004-cone" unicode="&#xe829;" d="M22 19l443-162c11-5 24-7 36-7 12 0 23 2 34 6l443 161c13 5 22 17 22 32v66c0 0 0 0 0 1s0 0 0 0c0 14-9 27-23 31l-248 84-129 572c-4 47-76 47-100 47-24 0-96 0-100-47l-128-571-248-83c-14-4-24-17-24-31 0 0 0 0 0-1v0-67c0-14 9-26 22-31z m502-132c-15-5-32-5-47 1l-444 162v31l432-158c11-4 23-6 36-6 11 0 23 2 34 6l389 141 1 0 42 16v-31z m-211 378c43-18 111-29 187-29 76 0 145 11 187 29l30-132c-3-16-76-50-217-50-140 0-213 34-216 51z m35 156c50-15 101-22 152-21 51-1 103 6 152 21l27-123c-31-15-95-29-179-29-84 0-148 14-179 29z m41 182c37-9 74-14 111-13 37-1 74 4 111 13l33-150c-46-14-95-21-144-20-49-1-97 6-144 20z m36 159c24-9 50-13 75-12 26-1 51 3 75 12l28-126c-33-9-68-14-103-13-35-1-70 4-103 13z m75 55c46 0 67-9 67-17 0-8-21-17-67-17-46 0-67 9-67 17 0 8 21 17 67 17z m-237-623l-10-48c0 0-1 0-1 0-1-4-2-8-2-13 0 0 0-1 0-2 0 0 0-1 1-1 5-55 131-80 249-80s244 25 250 80c0 0 0 1 0 1 0 1 0 2 0 2 0 5-1 9-2 13 0 0 0 0 0 0l-11 47 230-78-443-161c-16-6-32-5-47 0l-443 163z m0 0" horiz-adv-x="1000" />

<glyph glyph-name="005-pistons" unicode="&#xe82a;" d="M323 609c-23 23-60 23-83 0-23-23-23-60 0-83 23-22 60-22 83 0 23 23 23 60 0 83z m-24-59c-7-7-18-9-27-5-10 4-16 13-16 23 0 10 6 19 16 23 9 4 20 2 27-6 10-9 10-25 0-35z m0 0m438-513c20 0 39 8 53 22 25 26 29 65 9 95-20 30-58 42-91 28-33-14-52-49-45-84 7-35 38-61 74-61z m-30 105c17 16 43 16 59 0 17-16 17-43 0-59-16-16-42-16-59 0-8 8-12 18-12 29 0 11 4 22 12 30z m0 0m108 697c-6 7-15 10-24 10s-17-3-23-10l-36-35-47-47-165-166c-10-9-15-22-15-35 0-13 5-26 15-35l6-7c11-11 27-16 43-14 0 0 0 0 0 0l2 1h0l-33-33c-10-10-23-22-37-35-15 13-28 25-37 35l-33 33c1 0 1 0 2-1 0 0 0 0 0 0 16-2 32 3 43 14l6 7c20 19 20 51 0 70l-165 166-47 47-36 35c-13 13-34 13-47 0l-177-177c-13-13-13-34 0-47l35-35 213-213c9-9 22-15 35-15s26 6 36 15l6 6c10 11 15 26 14 41 0 0 0 0 0 0 0 1 0 2 0 2 0 1 0 1 0 2l32-32c8-9 18-19 28-30-65-51-133-97-173-105-10-2-19-5-28-9l-7 7c-6 6-15 10-24 10-8 0-17-4-23-10l-24-24c-6-6-9-14-9-23s3-18 9-24l7-6c-21-45-17-97 10-138 11-16 24-29 39-40 41-28 94-32 139-10l6-7c6-6 15-10 24-10 9 0 17 4 23 10l24 24c13 13 13 34 0 47l-7 7c4 9 7 18 9 28 8 38 50 101 97 163 56-72 90-130 97-163 2-10 5-19 9-28l-7-7c-6-6-10-15-10-23 0-9 4-18 10-24l24-24c6-6 15-10 23-10 9 0 18 4 24 10l6 7c45-22 98-18 139 10 7 5 15 11 21 18 7 7 13 14 18 22 28 41 32 93 11 138l6 6c6 6 10 15 10 24s-4 17-10 23l-24 24c-13 13-34 13-47 0l-7-7c-9 4-18 7-27 9-35 7-97 45-174 105 10 11 20 21 28 30l32 32c0-1 0-1 0-2 0-1 0-2 0-2 0-1 0-1 0-1-1-15 4-29 14-40l6-6c10-9 22-15 36-15 13 0 26 6 35 15l213 213 35 35c13 13 13 34 0 47z m106-248l-23-23-177 177 23 24 89-89z m-752 89l89 88 23-23-177-177-23 23z m42 136l23-24-177-177-24 24z m100-419l-6-6c-3-3-7-5-12-5s-8 2-12 5l-153 153 177 177 154-153c6-7 6-17 0-24l-7-6c-3-4-9-5-14-4 0 0-1 0-1 0-3 0-6 0-10 1h-1c-2 0-5 0-7-1-1 0-2 0-3 0h-1c-8 0-16-2-23-4-1 0-2 0-3-1l0 0c0 0 0 0-1 0-2-1-5-2-7-3-1 0-2-1-2-1l-1 0-1-1c-2-1-4-1-6-3l-4-2c0 0-1 0-1-1l-1 0c-2-2-5-3-7-5l0 0c-1-1-2-2-3-3-3-2-6-4-8-7-3-2-5-5-8-8-1-1-1-2-2-3l-1-1c-1-2-3-4-4-6-1-1-1-2-1-2l-2-4c-1-1-1-2-2-3-3-4-5-9-6-15-1 0-1 0-1 0 0-1 0-1 0-1l0-1c0-1-1-2-1-3-1-3-2-7-2-11-1-1-1-3-1-5 0-2-1-4-1-7v0c0-2 0-5 0-7v-3-1c0-3 0-6 1-9v0c0-1 0-1 0-1 1-6-1-11-5-15z m94 12l-50 49c3 5 5 9 8 13 1 1 1 1 1 1 0 1 1 1 1 2l0 0c2 2 3 4 5 5 2 2 3 3 5 5 1 0 1 1 2 1 0 1 1 1 1 1 4 3 8 6 12 8 0 0 1 0 1 0l49-49c9-10 22-22 36-34-13-11-27-23-41-34-11 12-21 23-30 32z m355-191c10-2 20-6 29-11 1 0 1 0 2 0 0-1 0-1 1-1 3-1 8-1 11 0 1 0 1 0 1 1 2 0 4 2 5 3l16 15 23-23-15-15c0 0 0-1 0-1-1-1-2-2-2-3-1-2-2-4-2-6 0-1 0-2 0-3 0-1 0-2 0-3 1-1 1-2 1-3 1-1 1-1 1-1 20-36 19-80-4-115-2-4-5-8-9-11 0 0 0-1 0-1-1-1-3-3-4-4l0 0-1-1c-1-1-3-2-4-4 0 0 0 0-1 0-3-3-7-6-11-9-34-23-79-24-114-4-1 1-1 1-2 1-1 0-2 1-3 1-1 0-2 0-3 0-1 0-2 0-3 0-1 0-2 0-3 0-2-1-4-2-6-4 0 0 0 0-1 0l-15-15-23 24 15 15c0 0 1 1 1 1 1 1 1 2 2 3 0 1 1 2 1 2 0 1 1 3 1 4 0 2 0 4-1 6 0 1 0 2-1 3 0 0 0 1 0 1-5 9-9 19-11 30-11 49-63 125-109 183 17 21 33 40 49 58 60-48 138-102 189-113z m-163 191c-10-10-24-26-41-44 0-1 0-1-1-1 0 0 0 0 0 0-67-75-169-203-184-274-2-11-6-21-11-30 0 0 0-1 0-1-1-1-1-2-1-3-1-2-1-4-1-7 0-1 1-2 1-3 1-2 2-3 3-5 0 0 1-1 1-1l15-15-23-24-15 15c0 0-1 0-1 0-2 2-4 3-6 4-1 0-2 0-3 0-1 0-2 0-3 0-1 0-2 0-3 0-1 0-2-1-3-1-1 0-1 0-2-1-35-20-80-19-114 4-4 3-8 6-11 9-1 0-1 0-1 0-3 3-6 6-9 9 0 0 0 1 0 1-4 3-7 7-9 11-23 35-25 79-4 115 0 0 0 0 0 1 1 1 1 2 2 3 0 3 0 6-1 9 0 1 0 2-1 3 0 1-1 2-2 3 0 0 0 1 0 1l-15 15 23 23 16-15c1-1 3-2 5-3 0 0 0-1 1-1 2 0 4-1 5-1 2 0 4 1 6 1 0 0 1 1 1 1 1 0 1 0 2 0 9 5 19 9 29 11 52 11 133 67 202 123 0 0 0 0 1 0 0 1 0 1 0 1 25 20 48 40 68 58 21 18 38 34 49 45l49 49c5-2 10-5 14-9 0 0 1-1 2-1l0 0c2-2 3-3 5-5 2-1 3-3 5-5l0 0c0-1 1-1 1-2l0 0 0 0c0 0 1-1 1-1 1-2 3-4 4-5 1-3 2-5 3-7 0 0 1 0 1 0z m124-18c-3-3-8-5-12-5-5 0-9 2-12 5l-6 6c-4 4-5 9-5 14 0 1 0 1 0 1 1 3 1 6 1 11v0c0 3 0 6 0 9 0 0 0 1 0 1v1c0 8-2 16-4 24-1 1-1 1-1 2l0 0c-1 3-2 6-4 10 0 0 0 0 0 1v0c0 1-1 1-1 2-1 2-2 3-3 5l-2 4c0 0 0 1-1 1l0 1c-2 2-3 5-5 7l0 0c-1 1-2 3-3 4-2 2-5 5-7 8-4 3-7 6-11 9l0 0c0 0-1 1-1 1-1 1-2 1-3 2-1 1-2 2-3 2-1 1-2 1-2 2l-4 2c-2 1-4 2-6 3 0 0-1 0-2 1 0 0 0 0-1 0-3 1-6 3-9 4-1 0-1 0-2 0l0 1c-5 1-10 2-15 3-1 0-2 0-2 0-3 1-6 1-9 1-2 0-3 0-5 0 0 0-1 0-1 0-1 0-1 0-1 0h-4c-3 0-6 0-9 0h0c-1 0-1 0-2-1-5 0-10 1-14 5l-6 6c-7 7-7 17 0 24l153 153 177-177z m224 224l-177 177 24 24 177-177z m0 0m-266-6c-23-23-23-60 0-83 23-22 60-22 83 0 23 23 23 60 0 83-23 23-60 23-83 0z m59-59c-9-10-25-10-35 0-10 10-10 26 0 35 10 10 26 10 35 0 5-4 8-11 8-17 0-7-3-13-8-18z m0 0m-526-385c-29-29-29-76 0-106s77-29 106 0c30 30 30 77 0 106-14 15-33 23-53 23-20 0-39-8-53-23z m83-82c-17-16-43-16-59 0-17 16-17 43 0 59 16 16 42 16 59 0 16-16 16-43 0-59z m0 0" horiz-adv-x="1000" />

<glyph glyph-name="006-fuel" unicode="&#xe82b;" d="M500-150c276 0 500 224 500 500s-224 500-500 500-500-224-500-500c0-276 224-500 500-500z m0 967c258 0 467-209 467-467s-209-467-467-467-467 209-467 467c1 258 209 466 467 467z m0 0m-116-521c6 59 56 104 116 104s110-45 116-104c2-17 16-29 33-29h231c17 0 31 12 33 28 3 18 4 37 4 55 0 230-187 417-417 417-230 0-417-187-417-417 0-18 2-36 4-55 2-16 16-28 33-28h231c17 0 31 12 33 29z m206 108l83 57c1 1 3 0 4-1 1-1 1-3 0-4l-57-83c-8 12-19 22-30 31z m-470-104c-2 17-3 33-3 50 0 137 73 264 191 332 119 69 265 69 384 0s191-195 191-332c0-17-1-33-3-50h0l-231 0c-1 14-5 28-10 41l66 96c10 14 8 34-5 47-12 12-32 14-46 4l-97-66c-43 18-93 14-133-10-41-24-68-65-73-112z m0 0m399-97c5 1 9 2 13 4 1 0 1 0 1 0 10 4 19 10 26 17 2 2 3 4 4 6 2 2 4 4 6 7 2 2 3 5 4 7 2 3 3 5 4 8 1 2 1 4 2 6 1 3 2 6 3 9 0 3 0 5 0 7 1 3 1 6 1 9 0 3 0 6-1 9 0 3 0 5 0 7-1 4-2 6-3 9-1 3-1 5-2 7-1 3-2 5-4 8-1 2-2 4-4 7-2 2-4 5-6 7-1 2-2 4-4 5-7 8-16 14-26 18 0 0 0 0-1 0-4 2-8 3-13 4-1 0-1 1-2 1-11 2-23 2-34 0-1 0-1-1-2-1-5-1-9-2-13-4-1 0-1 0-1 0-10-4-19-10-26-18-2-1-3-3-4-5-2-2-4-5-6-7-2-3-3-5-4-7-1-3-3-5-4-8-1-2-1-4-2-7-1-3-2-5-3-9 0-2 0-4 0-7-1-3-1-6-1-9 0-3 0-6 1-9 0-2 0-4 0-7 1-3 2-6 3-9 1-2 1-4 2-6 1-3 3-5 4-8 1-2 2-5 4-7 2-3 4-5 6-7 1-2 3-4 4-6 8-7 16-13 26-17 0 0 0 0 1 0 4-2 8-3 13-4 1-1 1-1 2-1 11-3 23-3 34 0 1 0 1 0 2 1z m-53 44c-1 1-3 3-4 4-1 2-2 3-3 5-1 1-2 2-3 4-1 1-1 3-2 4-1 2-1 3-1 5-1 1-2 3-2 5 0 1 0 3 0 5-1 3-1 6 0 9 0 2 0 3 0 5 0 2 1 3 2 5 0 1 0 3 1 4 0 2 1 3 2 5 1 1 2 3 3 4 1 2 2 3 3 4 5 6 11 11 18 14 0 0 0 0 1 0 2 1 5 2 7 3 1 0 1 0 2 0 7 2 13 2 20 0 1 0 1 0 2 0 2-1 5-2 8-3 0 0 0 0 0 0 7-3 13-8 18-14 1-1 3-2 4-4 1-1 1-3 2-4 1-2 2-3 2-5s1-3 2-4c0-2 1-3 1-5 0-2 1-3 1-5 0-3 0-6 0-9 0-2-1-4-1-5 0-2-1-4-1-5-1-2-1-3-2-5 0-1-1-3-2-4-1-2-1-3-2-4-1-2-3-3-4-5-9-10-21-17-35-18-13 0-27 4-37 14z m0 0m-166 326c18 16 37 30 57 41 4 2 9 4 13 6l13-30c2-6 8-10 15-10 2 0 4 0 6 1 4 2 8 5 9 9 2 4 2 9 0 13l-12 30c13 5 26 8 39 11 5 1 9 2 14 2 1 0 1 1 1 1 9 1 18 2 27 3h1v-33c0-9 8-17 17-17 9 0 17 8 17 17v33h1c9-1 18-2 27-3l1 0c5-1 9-2 15-3 13-3 26-6 38-11l-12-30c-2-4-2-9 0-13 1-4 5-7 9-9 2-1 4-1 6-1 7 0 13 4 16 10l12 30 0 0c5-2 9-4 13-6 21-11 40-25 57-41l-23-23c-7-6-7-17 0-23 6-7 17-7 23 0l23 23c16-17 30-37 41-57 2-4 4-9 6-13l-30-13c-9-3-13-13-9-21 3-9 13-13 22-9l30 12c5-12 8-26 11-39 1-5 2-9 3-14 0-1 0-1 0-1 1-9 2-18 3-27v-1h-33c-9 0-17-8-17-17s8-17 17-17h50c9 0 16 8 16 17 0 7 0 13 0 20-1 10-2 20-3 30 0 0 0 1-1 1 0 6-1 11-2 16-3 16-8 31-13 45-2 5-4 10-6 14 0 1 0 1 0 1 0 0 0 1 0 1 0 0 0 0 0 0-2 6-5 11-7 16-3 5-5 10-8 15-15 28-34 54-57 76 0 0 0 1 0 1 0 0-1 0-1 0-22 23-48 42-76 57-5 3-10 5-14 7-6 3-11 6-17 8 0 0 0 0 0 0s-1 0-1 0l-1 0c-4 2-8 4-13 6-15 5-30 9-45 12-6 2-11 3-17 3 0 1-1 1-1 1-10 1-20 2-30 3-13 1-27 1-40 0-10-1-20-2-30-3 0 0-1 0-1-1-6 0-11-1-16-2-15-4-30-8-45-13-5-2-10-4-14-6l-1 0c0 0 0 0 0 0-1 0-1 0-1 0-5-2-11-5-16-7-5-3-10-5-15-8-28-15-53-34-76-57 0 0 0 0-1 0s0-1 0-1c-23-22-42-48-57-76-3-5-5-10-7-15-3-5-6-11-7-15l-1-1c0 0 0 0 0 0 0-1 0-1 0-1 0 0 0 0 0-1-2-4-4-9-6-13-5-15-9-30-12-45-2-6-2-11-3-17 0 0-1-1-1-1-1-10-2-20-3-30 0-7 0-13 0-20 0-9 7-17 16-17h50c10 0 17 8 17 17s-7 17-17 17h-33c0 0 0 0 0 1 1 9 2 18 3 27 0 0 0 0 0 1 1 5 2 9 3 15 3 13 6 26 11 38l30-12c6-3 12-2 17 2 5 3 7 9 6 15-1 6-4 11-10 13l-30 13v0c2 5 4 9 6 13 11 21 25 40 41 57l23-23c6-7 17-7 23 0 7 6 7 17 0 23z m0 0m67-440c9 0 16 8 16 17 0 9-7 17-16 17h-34c-18 0-33-15-33-34v-116c0-9 8-17 17-17 9 0 16 8 16 17v50h34c9 0 16 7 16 16 0 10-7 17-16 17h-34v33z m0 0m116 34c-9 0-16-8-16-17v-100c0-9-8-17-17-17-9 0-17 8-17 17v100c0 9-7 17-16 17-9 0-17-8-17-17v-100c0-28 22-50 50-50 28 0 50 22 50 50v100c0 9-7 17-17 17z m0 0m100-34c10 0 17 8 17 17 0 9-7 17-17 17h-33c-18 0-33-15-33-34v-100c0-18 15-33 33-33h33c10 0 17 8 17 17 0 9-7 16-17 16h-33v34h33c10 0 17 7 17 16 0 10-7 17-17 17h-33v33z m0 0m117-100h-50v117c0 9-7 17-17 17-9 0-16-8-16-17v-133c0-9 7-17 16-17h67c9 0 17 8 17 17 0 9-8 16-17 16z m0 0" horiz-adv-x="1000" />

<glyph glyph-name="007-fuel-1" unicode="&#xe82c;" d="M500-150c276 0 500 224 500 500s-224 500-500 500-500-224-500-500c0-276 224-500 500-500z m0 967c258 0 467-209 467-467s-209-467-467-467-467 209-467 467c1 258 209 466 467 467z m0 0m-116-521c6 59 56 104 116 104s110-45 116-104c2-17 16-29 33-29h231c17 0 31 12 33 28 3 18 4 37 4 55 0 230-187 417-417 417-230 0-417-187-417-417 0-18 2-36 4-55 2-16 16-28 33-28h231c17 0 31 12 33 29z m206 108l83 57c1 1 3 0 4-1 1-1 1-3 0-4l-57-83c-8 12-19 22-30 31z m-470-104c-2 17-3 33-3 50 0 137 73 264 191 332 119 69 265 69 384 0s191-195 191-332c0-17-1-33-3-50h0l-231 0c-1 14-5 28-10 41l66 96c10 14 8 34-5 47-12 12-32 14-46 4l-97-66c-43 18-93 14-133-10-41-24-68-65-73-112z m0 0m399-97c5 1 9 2 13 4 1 0 1 0 1 0 10 4 19 10 26 17 2 2 3 4 4 6 2 2 4 4 6 7 2 2 3 5 4 7 2 3 3 5 4 8 1 2 1 4 2 6 1 3 2 6 3 9 0 3 0 5 0 7 1 3 1 6 1 9 0 3 0 6-1 9 0 3 0 5 0 7-1 4-2 6-3 9-1 3-1 5-2 7-1 3-2 5-4 8-1 2-2 4-4 7-2 2-4 5-6 7-1 2-2 4-4 5-7 8-16 14-26 18 0 0 0 0-1 0-4 2-8 3-13 4-1 0-1 1-2 1-11 2-23 2-34 0-1 0-1-1-2-1-5-1-9-2-13-4-1 0-1 0-1 0-10-4-19-10-26-18-2-1-3-3-4-5-2-2-4-5-6-7-2-3-3-5-4-7-1-3-3-5-4-8-1-2-1-4-2-7-1-3-2-5-3-9 0-2 0-4 0-7-1-3-1-6-1-9 0-3 0-6 1-9 0-2 0-4 0-7 1-3 2-6 3-9 1-2 1-4 2-6 1-3 3-5 4-8 1-2 2-5 4-7 2-3 4-5 6-7 1-2 3-4 4-6 8-7 16-13 26-17 0 0 0 0 1 0 4-2 8-3 13-4 1-1 1-1 2-1 11-3 23-3 34 0 1 0 1 0 2 1z m-53 44c-1 1-3 3-4 4-1 2-2 3-3 5-1 1-2 2-3 4-1 1-1 3-2 4-1 2-1 3-1 5-1 1-2 3-2 5 0 1 0 3 0 5-1 3-1 6 0 9 0 2 0 3 0 5 0 2 1 3 2 5 0 1 0 3 1 4 0 2 1 3 2 5 1 1 2 3 3 4 1 2 2 3 3 4 5 6 11 11 18 14 0 0 0 0 1 0 2 1 5 2 7 3 1 0 1 0 2 0 7 2 13 2 20 0 1 0 1 0 2 0 2-1 5-2 8-3 0 0 0 0 0 0 7-3 13-8 18-14 1-1 3-2 4-4 1-1 1-3 2-4 1-2 2-3 2-5s1-3 2-4c0-2 1-3 1-5 0-2 1-3 1-5 0-3 0-6 0-9 0-2-1-4-1-5 0-2-1-4-1-5-1-2-1-3-2-5 0-1-1-3-2-4-1-2-1-3-2-4-1-2-3-3-4-5-9-10-21-17-35-18-13 0-27 4-37 14z m0 0m-166 326c18 16 37 30 57 41 4 2 9 4 13 6l13-30c2-6 8-10 15-10 2 0 4 0 6 1 4 2 8 5 9 9 2 4 2 9 0 13l-12 30c13 5 26 8 39 11 5 1 9 2 14 2 1 0 1 1 1 1 9 1 18 2 27 3h1v-33c0-9 8-17 17-17 9 0 17 8 17 17v33h1c9-1 18-2 27-3l1 0c5-1 9-2 15-3 13-3 26-6 38-11l-12-30c-2-4-2-9 0-13 1-4 5-7 9-9 2-1 4-1 6-1 7 0 13 4 16 10l12 30 0 0c5-2 9-4 13-6 21-11 40-25 57-41l-23-23c-7-6-7-17 0-23 6-7 17-7 23 0l23 23c16-17 30-37 41-57 2-4 4-9 6-13l-30-13c-9-3-13-13-9-21 3-9 13-13 22-9l30 12c5-12 8-26 11-39 1-5 2-9 3-14 0-1 0-1 0-1 1-9 2-18 3-27v-1h-33c-9 0-17-8-17-17s8-17 17-17h50c9 0 16 8 16 17 0 7 0 13 0 20-1 10-2 20-3 30 0 0 0 1-1 1 0 6-1 11-2 16-3 16-8 31-13 45-2 5-4 10-6 14 0 1 0 1 0 1 0 0 0 1 0 1 0 0 0 0 0 0-2 6-5 11-7 16-3 5-5 10-8 15-15 28-34 54-57 76 0 0 0 1 0 1 0 0-1 0-1 0-22 23-48 42-76 57-5 3-10 5-14 7-6 3-11 6-17 8 0 0 0 0 0 0s-1 0-1 0l-1 0c-4 2-8 4-13 6-15 5-30 9-45 12-6 2-11 3-17 3 0 1-1 1-1 1-10 1-20 2-30 3-13 1-27 1-40 0-10-1-20-2-30-3 0 0-1 0-1-1-6 0-11-1-16-2-15-4-30-8-45-13-5-2-10-4-14-6l-1 0c0 0 0 0 0 0-1 0-1 0-1 0-5-2-11-5-16-7-5-3-10-5-15-8-28-15-53-34-76-57 0 0 0 0-1 0s0-1 0-1c-23-22-42-48-57-76-3-5-5-10-7-15-3-5-6-11-7-15l-1-1c0 0 0 0 0 0 0-1 0-1 0-1 0 0 0 0 0-1-2-4-4-9-6-13-5-15-9-30-12-45-2-6-2-11-3-17 0 0-1-1-1-1-1-10-2-20-3-30 0-7 0-13 0-20 0-9 7-17 16-17h50c10 0 17 8 17 17s-7 17-17 17h-33c0 0 0 0 0 1 1 9 2 18 3 27 0 0 0 0 0 1 1 5 2 9 3 15 3 13 6 26 11 38l30-12c6-3 12-2 17 2 5 3 7 9 6 15-1 6-4 11-10 13l-30 13v0c2 5 4 9 6 13 11 21 25 40 41 57l23-23c6-7 17-7 23 0 7 6 7 17 0 23z m0 0m167-440c9 0 16 8 16 17 0 9-7 17-16 17h-34c-18 0-33-15-33-34v-100c0-18 15-33 33-33h34c9 0 16 8 16 17 0 9-7 16-16 16h-34v34h34c9 0 16 7 16 16 0 10-7 17-16 17h-34v33z m0 0m-84-16c0 27-22 50-50 50h-16c-19 0-34-15-34-34v-116c0-9 8-17 17-17 9 0 17 8 17 17v50h6l29-58c4-8 14-11 22-7 8 4 12 14 8 22l-25 49c16 9 26 25 26 44z m-66 16h16c10 0 17-7 17-16 0-9-7-17-17-17h-16z m0 0m350-33c-5 0-9 2-12 5-3 3-5 7-5 12 0 4 2 9 5 12 4 3 9 5 14 4s10-4 12-8c5-9 15-12 23-7 8 4 11 14 7 22-9 17-26 27-44 27-28 0-50-23-50-50 0-28 22-50 50-50 9 0 16-8 16-17 0-4-1-9-5-12-4-3-9-5-14-4-5 1-9 4-12 8-4 8-14 11-22 7-9-4-12-14-7-22 8-17 25-27 44-27 27 0 50 22 50 50 0 28-23 50-50 50z m0 0m-81 66c-4 1-8 0-12-2-4-3-6-7-7-11l-17-89-17 89c-1 6-5 11-11 13-5 2-12 1-16-3-5-4-7-10-6-16l26-134c2-12 13-19 24-19 12 0 22 8 25 20l25 133c1 9-4 18-14 19z m0 0" horiz-adv-x="1000" />

<glyph glyph-name="008-speedometer" unicode="&#xe82d;" d="M200 40c1 0 1 0 1-1 2 0 4-1 7-1 4 0 9 2 12 6l45 44c5 4 7 10 5 16-1 6-6 11-11 12-6 2-13 0-17-4l-34-33c-40 43-70 95-88 151l46 13c9 3 14 12 12 20-3 9-12 14-21 12l-45-13c-13 57-13 117 0 174l46-12c2 0 3 0 4 0 9 0 16 6 17 15 1 8-4 16-12 18l-46 11c17 56 47 107 87 150l32-33c7-7 17-7 24-1 6 7 7 17 0 24l-33 34c43 40 95 70 151 87l11-45c2-8 9-13 16-13 2 0 3 0 4 0 9 3 15 12 12 21l-11 46c57 13 117 13 174 0l-13-45c-2-6 0-12 4-16 4-5 10-6 16-5 6 1 10 6 12 12l13 45c56-17 108-47 151-87l-34-32c-4-4-6-11-5-17 1-5 6-10 12-12 6-1 12 0 16 5l34 33c40-43 70-95 88-151l-46-13c-6-2-10-6-12-12-1-6 0-12 5-16s10-6 16-4l45 13c13-58 13-117 0-175l-46 12c-9 2-18-3-20-12-2-9 3-18 12-20l45-12c-17-55-47-107-86-150l-33 34c-4 4-10 6-16 5-6-2-10-6-12-12-2-6 0-12 4-16l45-47c5-5 13-6 19-3 0 0 0 0 1 0 1 1 3 2 4 3 0 0 0 1 0 1 1 0 1 0 1 0 53 53 91 120 110 192 1 1 1 1 1 1 0 1 0 1 0 1 19 73 19 150 0 223v0c-20 73-58 139-111 192 0 1-1 1-1 1 0 1-1 1-1 1-53 53-119 91-192 111 0 0 0 0-1 0 0 0-1 0-1 0-149 40-307-2-415-111-1 0-1 0-1 0-1-1-1-1-1-1-53-54-91-120-111-193 0 0 0 0 0-1 0 0 0 0 0-1-40-148 3-307 112-416 1-1 3-2 4-3z m0 0m317 560v33c0 9-8 17-17 17-9 0-16-8-16-17v-33c0-9 7-17 16-17 9 0 17 8 17 17z m0 0m-256-386l-29-16c-5-3-8-9-8-15 0-6 3-11 8-14 5-3 12-3 17 0l29 16c5 3 8 9 8 15 0 6-3 11-8 14-6 3-12 3-17 0z m0 0m499-48c8 0 14 6 16 13 2 7-1 15-8 19l-29 16c-8 5-18 2-22-6-5-8-2-18 6-23l29-16c2-2 5-3 8-3z m0 0m-482 315l-29 17c-8 4-18 1-23-7-5-8-2-18 6-22l29-17c5-3 11-3 17 0 5 3 8 8 8 14 0 6-3 12-8 15z m0 0m87 120c-3 5-9 9-15 9-6 0-11-3-14-9-3-5-3-11 0-16l16-29c5-8 15-11 23-6 8 4 11 14 6 22z m0 0m452-268c0 9-8 17-17 17h-33c-9 0-17-8-17-17 0-9 8-17 17-17h33c9 0 17 8 17 17z m0 0m-634 0c0-9 8-17 17-17h34c9 0 16 8 16 17 0 9-7 17-16 17h-34c-9 0-17-8-17-17z m0 0m451 214c5 0 11 4 14 9l17 29c3 5 3 11 0 16-3 6-9 9-15 9-6 0-11-4-14-9l-17-29c-3-5-3-11 0-16 3-5 9-9 15-9z m0 0m-203 27c2 0 3 0 4 1 5 1 8 4 11 7 2 4 2 9 1 13l-8 32c-2 6-6 10-12 12-6 2-12 0-16-4-4-5-6-11-5-16l9-33c2-7 9-12 16-12z m0 0m331-294c-6 2-12 0-16-4s-6-10-4-16c1-6 6-10 11-12l33-9c1 0 3 0 4 0 8 0 15 6 16 14 2 9-4 16-12 19z m0 0m-524 106c2 0 3-1 5-1 8 1 15 7 16 15 1 8-4 16-12 18l-32 9c-9 2-18-3-21-12-2-9 3-18 12-20z m0 0m463 124l23 23c4 5 6 11 5 17-2 6-6 10-12 12s-12-1-16-5l-24-24c-7-6-7-17 0-23 6-7 17-7 24 0z m0 0m-401 47c-4 4-11 6-16 5-6-2-11-6-12-12-2-6 0-12 4-17l24-23c6-7 17-7 23 0 7 6 7 17 0 23z m0 0m486-130l-33-9c-8-2-13-10-12-18 1-8 8-14 17-15 1 0 3 1 4 1l32 9c9 2 14 11 12 20-2 9-11 14-20 12z m0 0m-576-188c2 0 3 0 5 0l32 9c9 2 14 12 12 20-3 9-12 15-21 12l-32-8c-8-3-13-10-12-19 1-8 8-14 16-14z m0 0m359 335c8 0 14 5 16 12l9 33c1 5 0 11-4 16-5 4-11 6-16 4-6-2-11-6-12-12l-9-32c-1-4 0-9 2-13 2-3 6-6 10-7 1-1 3-1 4-1z m0 0m-6-294l205 180c9 8 12 21 6 31-6 10-19 15-30 11l-258-87c-8-1-16-4-24-8l0 0c-2-1-4-2-5-3-32-19-47-57-37-93 10-36 43-61 80-61 14 0 27 3 39 10 1 0 3 1 5 2 7 5 14 11 19 18z m20 61c-2 24-15 46-35 60l167 56z m-133-8c0 18 10 34 25 43l19 7c2 0 4 0 6 0 28 0 50-22 50-50 0-11-3-21-10-30l-15-13c-8-4-16-7-25-7-27 0-50 23-50 50z m0 0m67 0c0-9-8-17-17-17-9 0-16 8-16 17 0 9 7 17 16 17 9 0 17-8 17-17z m0 0m-343-363c1 0 2 0 3-1 0 0 2-1 3-1 1-1 2-1 3-1 1 0 2-1 2-1h630c2 0 4 1 6 2 1 0 1 0 2 1 1 0 2 1 3 1 15 13 29 27 42 41 1 2 3 3 4 4 5 5 9 11 13 16 0 0 1 0 1 1 5 6 10 12 15 18 4 7 9 13 13 20 1 0 1 0 1 1 4 6 8 11 11 17 0 0 1 2 1 2l2 2c3 6 7 13 11 19 8 14 15 29 21 44 3 7 6 15 9 23 3 7 5 15 8 23 2 7 4 14 6 22 0 1 1 2 1 2 2 8 3 16 5 24 2 8 3 16 4 25 2 8 3 16 4 25 0 8 1 17 1 25 1 8 1 17 1 26 0 17-1 33-2 50-23 224-192 405-413 443-222 38-442-77-537-280-96-204-44-446 126-593z m326 846c240 1 441-181 464-420 2-15 3-31 3-46 0-8 0-16-1-25 0-7-1-15-2-23 0-8-1-16-2-23-2-8-3-16-5-23-1-8-3-15-4-22-1-1-1-2-1-3-2-7-4-13-6-20-2-7-5-14-8-22-2-7-5-14-8-21-6-14-12-27-19-41-4-6-7-12-10-17l-2-3-1-1c-3-6-7-11-10-17l-1-1c-4-6-8-12-13-17-4-6-9-12-13-17 0 0-1-1-1-2-4-4-8-9-13-14-1-1-2-2-3-4-11-12-23-23-36-34h-616c-146 128-197 333-128 515 68 181 242 302 436 301z m0 0" horiz-adv-x="1000" />

<glyph glyph-name="009-podium" unicode="&#xe82e;" d="M475 709c-11 17-11 38 0 55 5 8 3 18-5 23s-18 3-23-4c-18-28-18-64 0-92 3-5 9-8 15-8 6 1 11 4 14 10 3 5 2 11-1 16z m0 0m-208-642c0 28-19 54-46 63-27 9-57 0-74-23-6-8-4-18 3-24 7-5 18-4 23 4 10 12 27 17 41 10 14-7 22-22 19-37-4-16-17-27-33-27h-17c-9 0-16-7-16-16 0-10 7-17 16-17h17c15 0 28-10 32-25 4-14-2-30-15-37-13-8-30-6-40 5-5 4-11 6-17 5-6-2-10-6-12-12-1-6 1-12 5-17 17-17 42-24 66-17 23 7 41 26 46 50 6 24-3 49-21 65 14 12 23 30 23 50z m0 0m283-134h-33v184c0 6-4 13-11 15-6 3-13 1-18-4l-50-50c-6-6-6-16 0-23 7-6 17-6 24 0l21 21v-143h-33c-9 0-17-7-17-16 0-10 8-17 17-17h100c9 0 17 7 17 17 0 9-8 16-17 16z m0 0m242 81c-12-8-23-17-33-27-17-19-27-45-26-70 0-10 8-17 17-17h100c9 0 17 7 17 17 0 9-8 16-17 16h-82c2 12 8 22 15 31 9 8 18 16 28 22 13 9 25 19 35 30 13 14 20 32 21 51 0 37-30 66-67 66-37 0-67-29-67-66 0-10 8-17 17-17 9 0 17 7 17 17 0 18 15 33 33 33s33-15 33-33c0-11-4-21-12-29-8-9-18-17-29-24z m0 0m-759 136v-283c0-10 8-17 17-17h900c9 0 17 7 17 17v366c18 0 33 15 33 34v33c0 18-15 33-33 33h-288c3 5 4 11 4 17v33c0 19-15 34-33 34h-17v13c0 29-23 53-53 53h-18c-5 35 13 86 30 136 2 5 4 11 6 17 45 31 114 97 114 160 1 16-5 30-16 41-10 9-22 13-35 13-20 0-38-8-52-21 0 1-1 2-1 3-8 11-21 17-34 17h-148c-13 0-26-6-33-17-1-1-1-2-2-3-14 13-32 21-51 21-14 0-26-4-36-13-11-11-17-25-16-41 0-63 69-129 114-160 2-6 4-12 6-17 18-50 35-101 30-136h-18c-14 0-28-5-38-15-10-10-15-24-15-38v-13h-17c-18 0-33-15-33-34v-33c0-12 6-23 16-29v-71h-300c-18 0-33-15-33-33v-34c0-18 15-33 33-33z m34 0h266v-267h-266z m300 17v150h266v-434h-266z m566-284h-266v350h266z m34 384h-300v33h300z m-340 529c0 9 17 21 34 21 4 0 9-2 13-4 4-5 6-11 5-17 0-33-30-72-62-102 10 31 12 63 8 95 1 2 2 5 2 7z m-306 0c-1 6 1 12 5 17 4 2 9 4 14 4 16 0 33-12 33-21 0-2 1-4 2-7-4-32-1-64 8-95-32 30-62 69-62 102z m118-166c-24 69-50 140-19 183 1 2 4 3 6 3h148c2 0 5-1 6-3 31-43 5-114-19-183-19-54-37-104-33-147h-56c4 43-14 93-33 147z m-39-200c0 11 9 20 20 20h160c11 0 20-9 20-20v-13h-200z m-50-47h300v-33h-300z m-317-166h300v-34h-300z m0 0m417 50c0 9-7 16-17 16h-16c-9 0-17-7-17-16 0-10 8-17 17-17h16c10 0 17 7 17 17z m0 0m133 16h-83c-9 0-17-7-17-16 0-10 8-17 17-17h83c10 0 17 7 17 17 0 9-7 16-17 16z m0 0" horiz-adv-x="1000" />

<glyph glyph-name="010-fuel-2" unicode="&#xe82f;" d="M589-26c2-12 9-22 20-28 10-5 22-6 33-1l159 70c8 4 12 13 10 21l-80 238c-13 37-51 60-90 53l-25-4c-43-8-72-48-65-91z m40 1c-2 0-3 0-4 1-2 0-2 2-3 3l-39 258c0 5 0 11 1 16l28-22c14-11 24-25 29-41l61-182z m-8 315l25 4c3 1 6 1 8 1 21 0 38-13 45-32l75-223-41-18-60 178c-8 23-22 43-40 57l-31 24c6 4 12 7 19 9z m0 0m-578 404l249-74c3-1 6-2 9-4l88-74 14-11 114-597c6-30 26-56 53-70 27-15 60-16 88-3l160 70c15-18 41-24 63-15l85 34c28 12 42 45 30 73l-154 375 12 13c21 25 18 62-6 83l-176 153c-12 10-27 15-43 14-15-1-30-9-40-20l-29-33-63 53h-1l-118 96c-6 5-13 9-20 11l-270 80c-31 9-64-9-73-40l-12-41c-5-15-3-31 5-45 7-14 20-24 35-28z m532-120l39 45c5 5 11 8 18 9 6 0 13-2 18-7l176-152c11-9 12-25 3-36l-18-21c-5-5-6-11-3-17l157-384c5-12-1-25-12-30l-84-34c-6-2-12-2-17 0-6 2-10 7-12 12-2 4-5 7-9 9-5 2-9 2-13 0l-174-77c-19-8-40-7-59 2-18 10-31 27-35 48l-116 602c0 4-2 7-5 9l-6 5 64 68 65-53c7-6 17-5 23 2z m-540 184l12 40c2 7 6 12 12 15 6 4 13 4 20 3l269-80c3-1 6-2 9-4l105-85-64-69-76 63c-6 5-13 9-21 12l-249 73c-13 4-21 18-17 32z m0 0m82-481c31-1 61 11 83 34s34 52 33 83c0 53-64 149-91 180-7 7-16 11-25 11-10 0-19-4-25-11-27-31-92-127-92-180-1-31 11-61 33-83s53-35 84-34z m0 275c29-34 83-120 83-158 1-23-8-44-23-60-16-16-38-24-60-24-23 0-44 8-60 24-16 16-24 37-24 60 0 38 54 124 84 158z m0 0m361-13c-4-1-8-4-10-8-3-3-3-8-2-12l8-33c2-7 9-12 16-12 2 0 3 0 4 0 9 2 15 11 13 20l-9 33c-1 4-4 8-7 10-4 3-9 3-13 2z m0 0m14-107l24-100c2-8 8-13 16-13 1 0 3 0 4 0 9 2 14 11 12 20l-23 100c-2 6-6 11-12 12-5 2-12 1-16-3-4-5-6-11-5-16z m0 0" horiz-adv-x="1000" />

<glyph glyph-name="011-shift-stick" unicode="&#xe830;" d="M280 777c-33 55-98 83-161 70s-110-67-117-131c-7-64 28-125 86-153 11-4 19-12 24-23l15-34c8-18 26-29 46-29 1 0 3 0 4 0l143-324c-12-5-21-16-26-28-4-12-4-24 0-36 1-5 4-10 6-15-3-4-5-8-7-12-9-18-7-40 5-56 1-1 2-1 2-2-15-11-23-28-22-46 1-11 4-22 11-32-3-2-4-4-6-7-9-14-10-32-2-47 9-15 24-24 41-24h420c28 0 45 29 46 50 1 19-4 39-16 55-11 16-27 27-46 32-13 2-26 1-40-1 4 21-2 42-14 59-17 23-45 34-73 29 1 3 1 6 1 9 1 19-7 37-20 51-15 14-37 20-57 16 0 1-1 3-1 4l-14 30c-11 25-40 37-66 26l-143 323c16 15 20 37 11 57l-15 34c-4 10-4 22-1 32 13 41 8 86-14 123z m-236-125c-13 31-13 66 1 96 14 31 40 54 72 64 11 3 22 5 34 5 41 0 79-22 100-57 18-29 22-64 12-96-3-8-5-17-4-26l-134-60c-7 7-15 12-23 16-26 12-46 32-58 58z m114-132l-14 31 122 54 14-31c2-4 2-8 0-13-1-4-5-7-9-9l-91-40c-4-2-9-2-13-1-4 2-7 5-9 9z m81-19l31 14 142-321-61-27-142 321z m481-549c10-3 19-10 25-19 7-9 10-21 10-33-1-8-8-19-13-19h-420c-5 0-9 3-11 7-3 4-2 9 0 13 2 4 6 6 10 6l352 41c5 0 10 1 15 2 10 3 21 3 31 2z m-75 71c9-13 12-29 6-44l-330-38c0 0-1 0-2 1-5 5-7 11-7 17-1 11 6 20 16 21l26 5 219 47c4 1 9 2 13 3l5 1c27 7 42 3 54-13z m-88 84c7-7 10-16 10-26 0-6-2-13-6-18l-214-45c-8-1-17 2-22 8-5 6-6 15-2 22 4 7 9 9 24 13l154 48c25 7 42 11 56-1z m-79 62l12-29-153-47c-3 0-5-1-8-2-1 3-2 5-3 8-2 5-2 10-1 15 3 6 10 10 21 15l3 1c0 0 0 0 0 0l91 40 16 7c8 4 18 0 22-8z m0 0m-337 593c-1 10-9 16-18 15-12-1-23-5-33-11-22-14-34-39-30-64 1-9 8-15 17-15h1c5 0 9 2 12 6 2 3 4 7 3 12-1 10 1 19 8 27 6 8 15 12 25 12 9 1 16 9 15 18z m0 0" horiz-adv-x="1000" />

<glyph glyph-name="012-battery" unicode="&#xe831;" d="M967 614v36c0 18-15 33-34 33h-50v17c0 12-6 23-16 29v21c0 28-23 50-50 50-28 0-50-22-50-50v-21c-11-6-17-17-17-29v-17h-50v67c0 55-45 100-100 100h-200c-55 0-100-45-100-100v-67h-50v17c0 12-6 23-17 29v21c0 28-22 50-50 50-27 0-50-22-50-50v-21c-10-6-16-17-16-29v-17h-50c-19 0-34-15-34-33v-36c-20-7-33-26-33-47v-50c0-21 13-40 33-47v-473c-20-7-33-26-33-47v-50c0-28 22-50 50-50h900c28 0 50 22 50 50v50c0 21-13 40-33 47v473c20 7 33 26 33 47v50c0 21-13 40-33 47z m-34 36v-33h-50v33z m-150 50h67v-83h-67z m17 50c0 9 8 17 17 17 9 0 16-8 16-17v-17h-33z m-467 0c0 37 30 67 67 67h200c37 0 67-30 67-67v-67h-34v50c0 28-22 50-50 50h-166c-28 0-50-22-50-50v-50h-34z m267-67h-200v50c0 10 8 17 17 17h166c10 0 17-7 17-17z m-283-33h433v-33h-500v33z m-167 50h67v-83h-67z m17 50c0 9 7 17 16 17 10 0 17-8 17-17v-17h-33z m-100-100h50v-33h-50z m866-650h-866v467h866z m34-100c0-9-8-17-17-17h-900c-9 0-17 8-17 17v50c0 9 8 17 17 17h900c9 0 17-8 17-17z m0 617c0-9-8-17-17-17h-900c-9 0-17 8-17 17v50c0 9 8 16 17 16h900c9 0 17-7 17-16z m0 0m-817-250h17v-17c0-18 15-33 33-33h33c19 0 34 15 34 33v17h16c19 0 34 15 34 33v33c0 19-15 34-34 34h-16v16c0 19-15 34-34 34h-33c-18 0-33-15-33-34v-16h-17c-18 0-33-15-33-34v-33c0-18 15-33 33-33z m0 66h33c10 0 17 8 17 17v33h33v-33c0-9 8-17 17-17h33v-33h-33c-9 0-17-7-17-17v-33h-33v33c0 10-7 17-17 17h-33z m0 0m567-66h133c18 0 33 15 33 33v33c0 19-15 34-33 34h-133c-19 0-34-15-34-34v-33c0-18 15-33 34-33z m0 66h133v-33h-133z m0 0m-295-133h55l-43-128c-2-8 1-16 8-20 7-4 16-2 21 4l144 173c8 10 10 23 4 35-5 12-17 19-30 19h-44l23 74c3 10 1 21-6 30-6 8-16 13-26 13h-66c-14 0-27-10-31-24l-40-133c-4-10-2-21 5-30 6-8 16-13 26-13z m40 167h66l-22-74c-4-10-2-21 5-30 6-8 16-13 26-13h44l-87-105 22 66c2 6 1 11-2 15-4 5-9 7-14 7h-78z m0 0m-345-334h33c9 0 17 8 17 17 0 9-8 17-17 17h-33c-9 0-17-8-17-17 0-9 8-17 17-17z m0 0m83 17c0-9 8-17 17-17h116c10 0 17 8 17 17 0 9-7 17-17 17h-116c-9 0-17-8-17-17z m0 0" horiz-adv-x="1000" />

<glyph glyph-name="013-air-pump" unicode="&#xe832;" d="M83 500c10 0 17 8 17 17v16c0 10-7 17-17 17-9 0-16-7-16-17v-16c0-9 7-17 16-17z m0 0m650 17h-33v50c0 9-7 16-17 16-9 0-16-7-16-16v-55c-11-6-17-17-17-29v-33c0-18 15-33 33-33h18c3-79 1-167-33-238-11-27-32-49-59-62-26-10-55-8-79 6-19 10-34 25-44 44 24 1 48 6 70 15 42 18 89 56 83 107-4 23-16 43-35 56-28 21-64 27-97 16-29-10-51-33-58-62-9-32-10-65-6-97-5 0-9 0-13 1-19 2-39 5-63 9v121c18 0 33 15 33 34v50c0 18-15 33-33 33h-34v33c0 15-6 28-16 37v201c5 3 9 7 12 12h138c27 0 50 23 50 50 0 28-23 50-50 50h-138c-6 11-17 17-29 17h-67c-11 0-22-6-28-17h-138c-28 0-50-22-50-50 0-27 22-50 50-50h138c3-5 7-9 12-12v-201c-11-9-17-22-17-37v-33h-67v17c29 21 41 59 29 93-11 34-43 57-79 57-35 0-67-23-79-57-11-34 1-72 29-93v-34c0-46 38-83 84-83h21c6-10 17-17 29-17v-98c-35-2-69-13-98-31-34-20-57-54-65-92-5-29 4-58 23-80 28-31 65-52 106-61v-21h-66c-28 0-50-22-50-50 0-28 22-50 50-50h400c27 0 50 22 50 50 0 28-23 50-50 50h-67v50c0 18-15 33-33 33v145c22-4 41-6 59-8 7-1 15-2 24-2 11-32 34-59 64-74 20-11 41-16 63-16 15 0 31 3 45 8 34 16 61 44 76 79 37 77 40 169 36 252 18 0 33 15 33 33v33c0 19-15 34-34 34z m-366-150h-200v50h200z m116 416c0-9-7-16-16-16h-134v33h134c9 0 16-7 16-17z m-183 34v-67h-67v67z m-250-34c0 10 8 17 17 17h133v-33h-133c-9 0-17 7-17 16z m200-66h33v-184h-33z m-17-234c0 10 8 17 17 17h33c10 0 17-7 17-17v-33h-67z m-150 100c23 0 43-15 49-37 5-22-4-45-24-56-2-1-4-2-6-3-9-4-20-5-30-2-5 1-9 3-14 5-19 12-29 35-23 56 6 22 26 37 48 37z m-16-150v19c5-1 11-2 16-2 6 0 12 1 17 2v-2c0-18 15-33 33-33v-34h-16c-28 0-50 23-50 50z m-15-379c-12 14-18 33-15 53 6 29 24 54 50 69 24 15 52 24 80 25v-168c-17 0-31-12-33-28-31 8-60 25-82 49z m431-154c0-9-7-17-16-17h-400c-9 0-17 8-17 17 0 9 8 17 17 17h400c9 0 16-8 16-17z m-316 50v50h200v-50z m33 83v300h133v-300z m277 167c-5 30-4 60 4 90 4 18 18 34 37 40 7 2 14 3 21 3 16 0 32-5 45-14 11-8 19-20 22-33 3-31-30-60-63-73-21-9-43-13-66-13z m206 283h50v-33h-50z m0 0" horiz-adv-x="1000" />

<glyph glyph-name="014-finish" unicode="&#xe833;" d="M156 575c1-9 8-15 16-15 1 0 1 0 2 0 9 1 16 9 15 18l-7 63c1 0 2 0 3 0 0 0 1 0 1 0 14 1 28 2 42 4 6 0 11 4 14 9 3 6 2 12-1 17-4 5-10 8-16 7-14-1-28-3-42-4-2 0-3-1-5-1l-4 43c0 1 0 1 0 2 1 1 3 2 4 2 15 1 29 3 43 4 6 0 11 4 14 10 2 5 2 11-2 16-3 5-9 8-15 7-14-1-29-2-43-4-11-1-20-6-27-14-6-7-9-17-8-26z m0 0m139-4h1c5 0 9 2 12 5 3 4 4 8 4 12l-11 159c0 6-4 11-9 14-6 2-12 2-17-2-5-3-8-9-7-15l11-158c0-9 8-15 16-15z m0 0m247 6h0c9 0 17 8 17 17l2 158c0 5-2 9-5 12-3 3-7 5-11 5-10 0-17-7-17-16l-3-159c0-4 2-8 5-12s8-5 12-5z m0 0m-164-2h0c9 0 17 8 16 17l-4 92c19-32 38-65 55-98 4-7 12-10 19-8 8 2 13 9 13 16l-3 159c0 9-7 16-16 16h-1c-4 0-8-2-11-5s-5-7-5-12l1-91c-18 33-37 66-57 98-3 6-11 9-19 7-7-2-12-9-12-16l7-159c0-9 8-16 17-16z m0 0m270 78c7 0 14-3 18-8 4-4 6-10 6-16-1-6-4-12-8-15-5-5-12-7-18-6-9 0-17 5-22 13-4 8-14 11-22 7s-11-14-7-22c9-19 28-31 49-32h3c14 0 28 5 38 14 12 10 19 24 20 38 1 15-4 30-14 41-11 12-25 19-41 20-7 0-14 3-19 8-4 4-6 10-6 16 0 6 3 12 8 15 5 5 12 7 19 7 9-1 18-6 23-14 2-5 7-9 13-9 6-1 12 2 15 7 4 5 4 11 2 17-10 19-30 31-52 32-15 1-30-4-42-14-12-10-19-24-20-40 0-15 5-30 16-40 11-11 26-18 41-19z m0 0m98-85c1 0 1 0 2 0 8 0 16 6 16 15l6 62c16-1 33-3 50-5l-7-62c-1-9 6-17 15-18 1 0 1 0 2 0 8 0 15 6 16 15l18 157c1 10-6 18-15 19-9 1-17-6-18-15l-7-62c-17 1-35 3-52 4l5 63c1 6-2 12-7 15-5 4-11 4-16 2-6-3-9-8-10-14l-13-158c0-5 1-9 4-13 3-3 7-5 11-5z m0 0m249 233c-6 8-15 13-24 14-312 45-628 45-940 0-9-1-18-6-24-14-6-8-8-18-7-28v0 0c1-3 1-6 2-9 1-6 2-13 3-21 0 0 0 0 0-1l36-237c0-2 0-4 0-6l29-199c19-132 37-253 45-304l-104-88c-10-10-14-24-9-37 5-13 18-21 31-21h936c13 0 26 8 31 21 5 13 1 28-9 37l-104 88c8 50 25 167 44 297l30 206c0 2 0 3 0 5l36 238c0 0 0 0 0 0l5 31c0 1 0 1 0 1 1 9-2 19-7 27z m-961-20c1 1 1 1 2 1 308 45 622 45 930 0 1 0 1 0 2-1 0-1 1-2 1-3l-42-274c0-1-1-2-1-2-1-1-2-1-3-1-280 41-564 41-844 0-1 0-2 0-3 1 0 0-1 1-1 2l-42 274c0 1 1 2 1 3z m693-781l-22 34h84c1 0 1 0 2 0l39-34z m-412 0l22 34h91l-7-34z m146 34h80l6-34h-92z m120-34l-6 34h90l22-34z m102 67l-23 33h46c4 0 8-1 11-3l35-30z m-40 0h-75l-7 33h59z m-109 0h-66l7 33h52z m-100 0h-75l23 33h59z m-115 0h-68l34 30c3 2 7 3 11 3h46z m-108-33c1 0 1 0 2 0h84l-22-34h-103z m758-151l-936 0 99 84c1 0 1 0 2 0h734c1 0 1 0 2 0l99-84z m-112 138l-119 101c-9 8-20 12-32 12h-410c-12 0-23-4-32-12l-119-101c-9 59-25 167-42 284l-24 163c1 0 3 0 4 0 277 40 559 40 836 0 1 0 2 0 4 0l-25-170c-17-115-32-219-41-277z m0 0" horiz-adv-x="1000" />

<glyph glyph-name="list-1" unicode="&#xe834;" d="M100 200q20 0 35-15t15-35-15-35-35-15l-50 0q-20 0-35 15t-15 35 14 35 36 15l50 0z m0 200q20 0 35-15t15-35-15-35-35-15l-50 0q-20 0-35 15t-15 35 14 35 36 15l50 0z m0 200q20 0 35-15t15-35-15-35-35-15l-50 0q-20 0-35 15t-15 35 14 35 36 15l50 0z m200-100q-20 0-35 15t-15 35 15 35 35 15l350 0q22 0 36-15t14-35-15-35-35-15l-350 0z m350-100q22 0 36-15t14-35-15-35-35-15l-350 0q-20 0-35 15t-15 35 15 35 35 15l350 0z m0-200q22 0 36-15t14-35-15-35-35-15l-350 0q-20 0-35 15t-15 35 15 35 35 15l350 0z" horiz-adv-x="700" />

<glyph glyph-name="th-list" unicode="&#xe835;" d="M160 660l0-161-160 0 0 161 160 0z m0-230l0-162-160 0 0 162 160 0z m0-230l0-160-160 0 0 160 160 0z m641 406l0-81-533 0 0 81 533 0z m0-230l0-81-533 0 0 81 533 0z m0-217l0-81-533 0 0 81 533 0z" horiz-adv-x="801" />

<glyph glyph-name="chat-2" unicode="&#xe836;" d="M900 808h-800c-54 0-100-45-100-100v-550c0-54 46-100 100-100h243l145-161c3-3 7-5 12-5s9 2 12 5l145 161h243c54 0 100 46 100 100v550c0 55-46 100-100 100z m67-650c0-36-31-66-67-66h-209l39 38c6 6 6 17 0 23-7 7-17 7-24 1l-67-67c0 0-1 0-1-1l-138-153-138 153c0 0 0 0 0 0 0 1 0 1 0 1l-68 67c-6 6-17 6-23-1-7-6-7-17 0-23l39-38h-210c-36 0-67 30-67 66v550c0 37 31 67 67 67h800c36 0 67-30 67-67v-550z" horiz-adv-x="1000" />

<glyph glyph-name="chat-three" unicode="&#xe837;" d="M900 817h-800c-54 0-100-46-100-100v-550c0-54 46-100 100-100h133v-167c0-7 5-13 11-16 2 0 4-1 6-1 5 0 9 2 12 6l162 178h476c54 0 100 46 100 100v550c0 54-46 100-100 100z m67-650c0-36-31-67-67-67h-447l60 69c6 7 5 18-2 24-7 6-18 5-24-2l-83-97-137-151v140c0 10-8 17-17 17h-150c-36 0-67 31-67 67v550c0 36 31 66 67 66h800c36 0 67-30 67-66v-550z" horiz-adv-x="1000" />

<glyph glyph-name="chat-two" unicode="&#xe838;" d="M901 833h-635c-55 0-99-44-99-98v-135h-68c-55 0-99-44-99-99v-352c0-55 44-99 99-99h101v-167c0-7 4-13 11-15 2-1 4-1 6-1 4 0 9 2 12 5l162 178h344c54 0 98 44 98 99v134h68c55 0 99 45 99 99v353c0 54-44 98-99 98z m-101-684c0-36-29-66-65-66h-352c-4 0-9-2-12-5l-138-152v141c0 9-7 16-16 16h-118c-36 0-66 30-66 66v352c0 36 30 66 66 66h84 552c36 0 65-30 65-66v-201-151z m167 233c0-36-30-65-66-65h-68v184c0 55-44 99-98 99h-535v135c0 36 29 65 66 65h635c36 0 66-29 66-65v-353z" horiz-adv-x="1000" />

<glyph glyph-name="liked" unicode="&#xe839;" d="M998 538c-14 160-128 277-270 277-95 0-182-51-231-133-48 83-131 133-225 133-142 0-256-117-270-277-1-7-6-45 8-106 21-87 69-167 139-231l348-316 354 316c70 64 118 143 139 231 14 61 10 99 8 106z" horiz-adv-x="1000" />

<glyph glyph-name="spinner-circle" unicode="&#xe83a;" d="M1000 334c-1 67-16 135-43 196-27 61-66 117-114 163-48 46-105 83-166 107-62 24-128 35-193 34-65-1-130-16-190-42-59-26-113-64-158-110-44-47-80-102-103-161-23-60-34-124-33-187 1-63 15-126 41-184 25-57 62-109 107-153 45-43 98-77 155-99 58-23 120-33 181-32 61 1 122 15 177 39 56 25 106 60 148 104 42 43 74 95 96 151 13 33 22 68 27 104 1 0 2 0 4 0 35 0 64 29 64 65 0 1 0 3 0 5l0 0 0 0z m-102-171c-24-54-58-103-100-143-42-40-92-72-146-92-53-21-111-31-168-30-57 2-114 14-165 37-52 23-99 56-137 97-39 40-69 88-89 140-20 52-30 107-28 162 1 55 13 109 35 159 22 50 54 95 93 132 39 37 85 66 135 85 50 19 103 28 156 27 53-1 105-13 153-34 47-21 91-52 126-90 36-37 64-82 82-129 19-48 27-99 26-150h0c0-2 0-4 0-5 0-34 25-61 58-65-7-35-17-69-31-101z" horiz-adv-x="1000" />

<glyph glyph-name="reload" unicode="&#xe83b;" d="M493-17l-39 57c-7 11-4 25 6 32 11 7 25 4 32-6l63-93c6-9 6-21-1-29l-75-86c-8-10-22-11-32-3-9 9-10 23-2 33l43 49c-14 0-28 2-43 4-22 3-44 7-67 15-108 33-193 108-242 201-49 94-63 206-29 314 21 68 58 127 105 173 50 48 110 83 176 102 12 3 25-4 28-16 4-12-3-25-16-28-58-17-112-48-156-90-42-42-75-94-93-154-30-96-18-196 25-279 44-83 119-150 216-180 20-6 40-10 60-13 14-2 27-3 41-3l0 0z m119-29c-12-3-25 4-28 16-3 12 3 25 16 28 58 17 112 48 156 91 42 41 75 93 94 153 29 97 17 196-26 280-44 83-119 149-216 179-20 6-39 11-59 13-14 2-28 3-42 4l39-58c7-11 4-25-6-32-10-7-25-4-32 6l-63 94c-6 8-6 20 1 28l75 86c8 10 22 11 32 3 9-9 10-23 2-33l-43-49c14 0 28-1 43-3 22-4 44-8 67-15 109-34 193-109 242-202 49-94 63-206 29-314-21-68-58-126-105-173-50-48-110-83-176-102l0 0z" horiz-adv-x="1000" />

<glyph glyph-name="reload-style-two" unicode="&#xe83c;" d="M994 446c-7 5-17 4-22-3l-46-58c-18 222-203 396-428 396-201 0-373-136-419-331-2-9 4-17 12-19 9-2 17 3 19 12 42 180 202 307 388 307 209 0 380-162 396-367l-53 48c-6 5-16 5-22-2-6-6-5-16 1-22l83-74c3-3 6-4 10-4 1 0 1 0 1 0 5 0 9 2 11 6l72 89c5 6 4 16-3 22z m-85-177c-8 2-17-3-19-11-42-181-201-308-387-308-210 0-381 162-397 367l53-47c6-6 16-6 22 1 6 6 6 16-1 22l-83 74c-3 3-7 5-11 4-5 0-9-2-11-6l-71-88c-6-7-5-17 2-23 3-2 6-3 10-3 4 0 9 2 12 6l46 58c18-221 203-396 429-396 200 0 372 136 418 331 2 9-4 17-12 19z" horiz-adv-x="1000" />

<glyph glyph-name="share-1" unicode="&#xe83d;" d="M792 208c-57 0-108-28-141-70l-275 153c7 19 10 39 10 59 0 21-3 41-10 59l274 154c33-43 84-71 142-71 99 0 179 81 179 179s-80 179-179 179-179-80-179-179c0-20 4-40 11-59l-275-153c-32 43-84 70-142 70-98 0-178-80-178-179s80-179 179-179c57 0 109 28 142 71l274-154c-6-18-10-38-10-59 0-99 80-179 179-179s178 80 178 179-80 179-179 179z m0 586c68 0 123-55 123-123s-55-123-123-123-122 55-122 123 55 123 122 123z m-584-566c-68 0-123 55-123 122s55 123 123 123 122-55 122-123-55-122-122-122z m584-322c-67 0-122 55-122 123 0 68 55 123 122 123s123-55 123-123c0-68-55-123-123-123z" horiz-adv-x="1000" />

<glyph glyph-name="share-symbol" unicode="&#xe83e;" d="M801 143c-38 0-72-15-98-38l-358 208c3 11 5 23 5 35 0 12-3 24-5 35l354 207c27-25 63-41 102-41 84 0 151 67 151 150 0 84-67 151-151 151-83 0-150-67-150-150 0-13 2-24 4-36l-354-206c-27 25-62 41-102 41-84 0-151-68-151-151s67-151 151-151c39 0 75 16 102 41l358-209c-3-10-4-21-4-32 0-81 65-147 146-147 81 0 147 66 147 147s-66 146-147 146z" horiz-adv-x="1000" />

<glyph glyph-name="share-two" unicode="&#xe83f;" d="M792 208c-57 0-108-28-141-70l-275 153c7 19 10 39 10 59 0 21-3 41-10 59l274 154c33-43 84-71 142-71 99 0 179 81 179 179s-80 179-179 179-179-80-179-179c0-20 4-40 11-59l-275-153c-32 43-84 70-142 70-98 0-178-80-178-179s80-179 179-179c57 0 109 28 142 71l274-154c-6-18-10-38-10-59 0-99 80-179 179-179s178 80 178 179-80 179-179 179z m0 586c68 0 123-55 123-123s-55-123-123-123-122 55-122 123 55 123 122 123z m-584-566c-68 0-123 55-123 122s55 123 123 123 122-55 122-123-55-122-122-122z m584-322c-67 0-122 55-122 123 0 68 55 123 122 123s123-55 123-123c0-68-55-123-123-123z" horiz-adv-x="1000" />

<glyph glyph-name="sharing-interface" unicode="&#xe840;" d="M829 201c-49 0-93-21-124-54l-365 179c2 8 2 17 2 26 0 8 0 16-2 25l364 176c32-33 76-54 125-54 94 0 171 77 171 171 0 95-77 172-171 172s-171-77-171-172c0-8 0-16 2-25l-364-176c-32 33-76 54-125 54-94 0-171-77-171-171 0-95 77-172 171-172 49 0 93 21 124 54l365-179c-2-8-2-17-2-25 0-95 76-172 171-172s171 77 171 172c0 94-77 171-171 171z" horiz-adv-x="1000" />

<glyph glyph-name="message" unicode="&#xe841;" d="M1000 419c0 0 0 1 0 1 0 0 0 1 0 1 0 0-1 1-1 2 0 0 0 0 0 0 0 0 0 1 0 2 0 0-1 0-1 0 0 0 0 1 0 1 0 0 0 0 0 1-1 0-1 0-1 1 0 0 0 0 0 0-1 1-1 1-1 1 0 1-1 1-1 1 0 0 0 1-1 1 0 0 0 0 0 0l-413 413c0 0 0 0 0 1-1 0-1 0-1 0 0 1-1 1-1 1 0 0 0 0-1 1 0 0 0 0-1 0 0 0 0 0 0 1-1 0-1 0-1 0-1 0-1 0-1 0-1 1-1 1-1 1-1 0-1 0-1 0-1 0-1 0-1 0-1 0-1 1-1 1-1 0-1 0-1 0-1 0-1 0-1 0-1 0-1 0-2 0 0 0 0 0 0 0 0 0-1 0-1 0 0 0-1 0-1 0-1 0-1 0-1 0-1 0-1 0-1 0-1 0-1-1-2-1 0 0 0 0 0 0-1 0-1 0-1 0-1 0-1 0-1-1-1 0-1 0-1 0-1 0-1 0-1 0 0-1-1-1-1-1 0 0-1 0-1 0 0-1-1-1-1-1 0 0 0-1 0-1-1 0-2-1-2-1l-546-546c0 0 0 0 0 0 0 0-1-1-1-1 0-1 0-1-1-1 0 0 0-1 0-1-1 0-1 0-1 0 0-1 0-1 0-2-1 0-1 0-1 0 0-1 0-1 0-2 0 0 0 0 0 0-1 0-1-1-1-2 0 0 0 0 0 0 0 0 0-1-1-2 0 0 0 0 0 0 0-1 0-1 0-2 0 0 0-1 0-2s0-1 0-2c0 0 0-1 0-1 0 0 0-1 0-1 1 0 1-1 1-2 0 0 0 0 0 0 0 0 0-1 1-1 0 0 0-1 0-1 0 0 0-1 0-1 0 0 0 0 1 0 0-1 0-1 0-2 0 0 0 0 1 0 0-1 0-1 0-1 1-1 1-1 1-1 0 0 0-1 1-1 0 0 0 0 0 0l377-377h-91c-12 0-21-10-21-21 0-12 9-21 21-21h416c12 0 21 9 21 21 0 11-9 21-21 21h-224l510 510c0 0 0 0 0 0 0 1 1 1 1 2 0 0 1 0 1 0 0 0 0 1 1 1 0 0 0 0 0 1 0 0 0 0 1 1 0 0 0 0 0 0 0 1 0 1 0 2 0 0 1 0 1 0 0 0 0 1 0 2 0 0 0 0 0 0 0 0 1 1 1 2 0 0 0 0 0 0 0 1 0 1 0 2 0 0 0 1 0 2 0 0 0 1 0 2z m-929-115l475 475v-475h-475v0z m646 92h212l-496-496-362 363h342v-185c0-12 9-21 20-21 12 0 21 9 21 21v185h113c11 0 21 9 21 20v496l341-341h-212c-12 0-21-10-21-21s9-21 21-21z m-67 42h-12c-12 0-21-10-21-21 0-12 9-21 21-21h12c12 0 21 9 21 21 0 11-9 21-21 21z m-217-406c-11 0-20-9-20-21v-12c0-12 9-21 20-21 12 0 21 9 21 21v12c0 12-9 21-21 21z" horiz-adv-x="1000" />

<glyph glyph-name="broken" unicode="&#xe842;" d="M873 593c0 0 0 1 0 1 0 1 0 2-1 2v0c0 1 0 2 0 3 0 0 0 0 0 0-1 1-1 2-1 3 0 0 0 0 0 0-1 0-1 1-2 2 0 0 0 0 0 0-1 1-1 2-2 2l-238 238c0 1-1 2-2 2 0 0 0 0 0 0-1 1-2 1-2 2 0 0-1 0-1 0 0 0-1 1-2 1 0 0 0 0 0 0-1 0-2 1-3 1 0 0 0 0 0 0-1 0-1 0-2 0-1 0-1 0-1 0 0 0 0 0-1 0h-595c-11 0-20-9-20-19v-884c0-6 3-12 8-15 5-4 12-5 18-3l167 55 136-129c4-3 9-5 14-5 3 0 7 1 10 3l167 102 196-103h0c1 0 1 0 2-1 0 0 0 0 1 0 0 0 1 0 2-1 0 0 0 0 0 0 1 0 1 0 2 0 0 0 0 0 0 0 1 0 1 0 2 0 0 0 0 0 0 0 1 0 1 0 2 0 0 0 1 0 1 0 1 0 1 0 2 1 0 0 0 0 0 0 0 0 0 0 1 0 0 0 0 0 0 0 1 0 1 0 2 1 0 0 0 0 0 0 1 0 1 0 2 1 0 0 0 0 0 0l128 78c6 3 10 10 10 16v646c0 0 0 0 0 0z m-238 190l171-171h-171z m102-884l-36 127 71 72c6 7 7 16 3 24l-22 38c-5 9-17 13-27 8-9-6-12-18-7-27l15-26-69-70c-5-5-7-12-5-19l34-118-166 87c-2 1-6 2-9 2-3 0-7-1-10-3l-164-100-117 111 87 70c4 3 7 8 7 14 0 5-2 11-5 15l-83 86 26 96c3 10-3 21-13 24-11 2-22-4-24-14l-29-107c-2-6 0-13 4-18l76-79-85-69-150-49v837h557v-218c0-11 9-20 19-20h219v-615z m0 0m-475 487c-11 0-20-9-20-20 0-11 9-19 20-19 11 0 19 8 19 19 0 11-8 20-19 20z m0 0m436-148c-11 0-20-9-20-19 0-11 9-20 20-20 10 0 19 9 19 20 0 10-9 19-19 19z m0 0" horiz-adv-x="1000" />

<glyph glyph-name="spinner" unicode="&#xe843;" d="M500 850c-272 0-494-217-500-488 6 236 186 426 406 426 225 0 407-196 407-438 0-52 42-94 93-94s94 42 94 94c0 276-224 500-500 500z m0-1000c272 0 494 218 500 488-6-236-185-426-406-426-225 0-406 196-406 438 0 52-42 94-94 94s-94-42-94-94c0-276 224-500 500-500z" horiz-adv-x="1000" />

<glyph glyph-name="spinner-of-dots" unicode="&#xe844;" d="M657 712c0-76-62-138-138-138-76 0-138 62-138 138 0 76 62 138 138 138 76 0 138-62 138-138z m-138-708c-42 0-77-35-77-77 0-43 34-77 77-77 42 0 77 34 77 77 0 42-35 77-77 77z m443 316c0 27-23 50-51 50-27 0-50-23-50-50 0-28 23-51 50-51 28 0 51 23 51 51z m-748 0c0 48-39 87-88 87s-88-39-88-87c0-49 40-88 88-88s88 39 88 88z m610 305c-15 16-40 16-55 0-16-15-16-40 0-56 15-15 40-15 55 0s16 41 0 56z m-519-520c-35 35-92 35-128 0-35-35-35-92 0-127 36-35 93-35 128 0 35 35 35 92 0 127z m528-100c20 20 20 53 0 74-20 20-53 20-73-1-20-20-20-53 0-73 20-20 53-20 73 0z m-526 526c37 37 37 96 0 132-36 36-95 36-131 0-37-36-37-95 0-132s95-36 131 0z" horiz-adv-x="1000" />

<glyph glyph-name="slim-left" unicode="&#xe845;" d="M167 480l-24 22-143-141v-22l143-141 23 22-113 114h947v32h-947z" horiz-adv-x="1000" />

<glyph glyph-name="slim-right" unicode="&#xe846;" d="M833 220l24-22 143 141v22l-143 141-23-22 113-114h-947v-32h947z" horiz-adv-x="1000" />

<glyph glyph-name="heart-outline" unicode="&#xe847;" d="M919 706c-53 53-122 82-197 82-74 0-144-29-196-82l-26-26-26 26c-52 53-122 82-196 82-74 0-144-29-197-82-108-108-108-284 0-393l388-388c7-6 15-10 23-12 3 0 6-1 8-1 11 0 22 5 31 13l388 388c108 109 108 285 0 393z m-61-332l-358-358-358 358c-75 75-75 197 0 272 36 36 84 56 136 56 51 0 99-20 135-56l57-57c16-16 44-16 60 0l57 57c36 36 84 56 135 56 52 0 100-20 136-56 75-75 75-197 0-272z" horiz-adv-x="1000" />

<glyph glyph-name="like-1" unicode="&#xe848;" d="M998 538c-14 160-128 277-270 277-95 0-182-51-231-133-48 83-131 133-225 133-142 0-256-117-270-277-1-7-6-45 8-106 21-87 69-167 139-231l348-316 354 316c70 64 118 143 139 231 14 61 10 99 8 106z m-46-97c-18-80-62-153-126-211l-329-293-322 293c-65 58-108 131-127 211-14 58-8 90-8 91l0 2c12 140 110 242 232 242 90 0 170-55 207-144l18-42 18 42c37 88 121 144 213 144 122 0 220-102 232-244 0-1 6-33-8-91z" horiz-adv-x="1000" />

<glyph glyph-name="015-jerrycan" unicode="&#xe849;" d="M483 850h-366c-65 0-117-52-117-117v-766c0-65 52-117 117-117h566c65 0 117 52 117 117v469c0 14-5 26-15 36l-36 36 37 37c13-13 34-13 47 0l24 23c13 13 13 34 0 48l-141 141c-14 13-34 13-48 0l-23-24c-13-13-13-34 0-47l-37-37-25 25v76c0 55-44 100-100 100z m67-100v-67h-33v50c0 28-23 50-50 50h-234v34h250c37 0 67-30 67-67z m-317-67v67h234c9 0 16-7 16-17v-50z m534-247v-469c0-46-38-84-84-84h-566c-46 0-84 38-84 84v766c0 46 38 84 84 84h83v-150c0-9 8-17 17-17h343l36-36 118-118 48-48c3-3 5-7 5-12z m-75 297l141-141-23-24-142 142z m-24-70l95-95-37-37-95 95z m0 0m-54-149c-13 12-30 19-47 19h-334c-17 0-34-7-47-19-12-13-19-30-19-47v-400c0-24 12-46 33-58 0 0 1 0 2 0 9-6 20-9 31-9h334c11 0 22 3 32 9 0 0 1 0 1 0 21 12 33 34 33 58v400c0 17-7 34-19 47z m-14-47v-400c0-7-2-14-7-20l-93 93v236l99 99c1-3 1-5 1-8z m-400-400v400c0 3 1 5 1 8l99-99v-236l-93-93c-5 6-7 13-7 20z m267 83h-134v217h134z m-143-33h152l84-84h-320z m243 383c3 0 5 0 8-1l-99-99h-152l-99 99c3 1 6 1 8 1z m0 0m-484 233c-9 0-16-7-16-16v-34c0-9 7-16 16-16 10 0 17 7 17 16v34c0 9-7 16-17 16z m0 0m0-100c-9 0-16-7-16-16v-150c0-9 7-17 16-17 10 0 17 8 17 17v150c0 9-7 16-17 16z m0 0" horiz-adv-x="1000" />

<glyph glyph-name="left-quotes-sign-2" unicode="&#xe84b;" d="M0 156c0-131 107-238 238-238 132 0 238 107 238 238s-106 238-238 238c-27 0-53-5-77-13 54 307 293 506 71 342-246-180-232-560-232-567 0 0 0 0 0 0z m524 0c0-131 107-238 238-238s238 107 238 238-107 238-238 238c-27 0-53-5-77-13 53 307 293 506 71 342-246-180-232-560-232-567 0 0 0 0 0 0z" horiz-adv-x="1000" />

<glyph glyph-name="right-quotes-symbol-1" unicode="&#xe84c;" d="M1000 544c0 0 0 0 0 0 0 131-107 238-238 238s-238-107-238-238c0-132 106-238 238-238 27 0 53 5 77 13-54-307-293-506-71-342 246 180 232 560 232 567z m-762-238c27 0 53 5 77 13-53-307-293-506-71-342 246 180 232 560 232 567 0 0 0 0 0 0 0 131-106 238-238 238-131 0-238-107-238-238 0-132 107-238 238-238z" horiz-adv-x="1000" />

<glyph glyph-name="two-quotes-1" unicode="&#xe84d;" d="M192 784c-106 0-192-88-192-197 0-109 86-197 192-197 192 0 64-382-192-382v-92c457 0 635 868 192 868z m553 0c-106 0-192-88-192-197 0-109 86-197 192-197 191 0 63-382-192-382v-92c456 0 635 868 192 868z" horiz-adv-x="1000" />

<glyph glyph-name="001-car-of-hatchback-model" unicode="&#xe852;" d="M160 314c-44 0-79-35-79-79 0-3 0-6 1-10 5-39 38-69 78-69 41 0 75 32 79 73 0 2 0 4 0 6 0 44-35 79-79 79z m-40-49l16-16c-1-2-2-5-2-7h-23c1 9 4 16 9 23z m-9-37h23c0-2 1-4 3-7l-17-16c-5 7-8 15-9 23z m42-42c-8 1-16 5-23 10l16 16c2-1 5-2 7-3v-23z m0 76c-2-1-5-2-7-3l-16 16c7 5 14 8 23 9v-22z m14 22c8-1 16-4 23-9l-16-16c-2 1-5 2-7 3v22z m0-98v23c2 1 5 2 7 3l16-16c-7-5-15-9-23-10z m33 19l-17 16c2 3 3 5 3 7h23c-1-8-4-16-9-23z m-14 37c0 2-1 5-3 7l17 16c5-7 8-14 9-23l-23 0 0 0z m639 72c-44 0-79-35-79-79 0-3 0-6 1-10 5-39 38-69 78-69 41 0 75 32 79 73 0 2 0 4 0 6 0 44-35 79-79 79z m-40-49l17-16c-2-2-3-5-3-7h-23c1 9 4 16 9 23z m-9-37h23c0-2 1-4 3-7l-16-16c-5 7-9 15-10 23z m42-42c-8 1-16 5-23 10l16 16c2-1 5-2 7-3v-23z m0 76c-2-1-5-2-7-3l-16 16c7 5 15 8 23 9v-22z m14 22c9-1 16-4 23-9l-16-16c-2 1-5 2-7 3v22z m0-98v23c2 1 5 2 7 3l16-16c-7-5-15-9-23-10z m33 19l-17 16c2 3 3 5 3 7h23c-1-8-4-16-9-23z m-14 37c0 2-1 5-2 7l16 16c5-7 8-14 9-23l-23 0 0 0z m142 97l-15 15 0 46c0 12-4 23-12 32l-57 62v0c0 13-9 24-22 27-66 12-274 45-437 0-102-27-205-81-205-81s-178-23-221-79c-15-20-21-45-24-68-3-32 18-62 50-69l16-3c0 1 0 1 0 2-1 5-1 9-1 12 0 53 43 95 95 95 52 0 95-42 95-95 0-2 0-5-1-8 0-3 0-6-1-9l479-1c0 2-1 4-1 6-1 5-1 9-1 12 0 53 43 95 95 95 52 0 95-42 95-95 0-2 0-5 0-8-1-3-1-7-2-11l6 0 28 15c28 16 46 45 48 78l0 14c0 6-2 12-7 16z m-653 94l7 29c0 0 111 58 297 52v-86l-298-24c0 0 2 19-6 29z m476 8l-140-11v82c46-3 96-10 150-23 5-2 10-6 11-11 2-5 1-11-3-15l-18-22z" horiz-adv-x="1000" />

<glyph glyph-name="002-sedan-car-model" unicode="&#xe853;" d="M175 323c-42 0-76-34-76-75 0-4 0-7 1-10 4-37 36-66 75-66 39 0 71 31 75 69 0 2 0 4 0 7 0 41-34 75-75 75z m-38-47l15-15c-1-2-2-5-3-7h-21c1 8 4 16 9 22z m-9-35h22c0-2 1-5 2-7l-15-15c-5 6-8 14-9 22z m40-40c-8 1-16 4-22 9l16 15c2-1 4-2 6-3v-21z m0 72c-2-1-5-2-7-3l-15 15c6 5 14 8 22 9v-21z m13 21c8-1 16-4 22-9l-15-15c-2 1-4 2-7 3l0 21 0 0z m0-93v21c2 1 5 2 7 3l15-15c-6-5-14-8-22-9z m31 18l-15 15c1 2 2 5 3 7h21c-1-8-4-16-9-22z m-12 35c-1 2-2 5-3 7l15 15c5-6 8-14 9-22h-21z m601 69c-42 0-75-34-75-75 0-4 0-7 0-10 5-37 37-66 75-66 40 0 72 31 75 69 0 2 1 4 1 7 0 41-34 75-76 75z m-38-47l16-15c-1-2-2-5-3-7h-22c1 8 5 16 9 22z m-9-35h22c1-2 2-5 3-7l-16-15c-4 6-8 14-9 22z m41-40c-9 1-16 4-22 9l15 15c2-1 4-2 7-3v-21z m0 72c-3-1-5-2-7-3l-15 15c6 5 13 8 22 9v-21z m13 21c8-1 15-4 22-9l-16-15c-2 1-4 2-6 3v21z m0-93v21c2 1 4 2 6 3l16-15c-7-5-14-8-22-9z m31 18l-16 15c2 2 3 5 3 7h22c-1-8-4-16-9-22z m-13 35c0 2-1 5-2 7l15 15c5-6 8-14 9-22h-22z m156 108v56c0 9-6 17-15 18-21 3-59 10-76 15-24 7-118 47-151 55-32 7-179 47-320-2-23-8-130-59-193-86-19 0-202-38-212-65-10-26-13-39-14-45-2-7 0-39 13-61 14-8 41-13 72-16-1 1-1 3-1 5-1 4-1 8-1 12 0 50 41 90 91 90s90-40 90-90c0-3 0-6 0-8-1-6-2-11-3-16 0 0 0 0 0 0l450 9c0 1-1 2-1 3 0 4 0 8 0 12 0 50 40 90 90 90 50 0 91-40 91-90 0-1 0-1 0-1l2 0 77 15c0 0 29 15 29 58 0 29-18 42-18 42z m-446 53l-168-5c3 25-12 31-12 31 67 60 202 62 202 62l-22-88z m189 8l-153-5 13 85c80 1 125-16 125-16l22-37-7-27z m86 0h-43l-42 59c32-13 57-25 73-33 9-5 14-15 12-26z" horiz-adv-x="1000" />

<glyph glyph-name="003-car-city-model" unicode="&#xe854;" d="M773 239c0-4 1-8 1-12 6-44 43-79 89-79 48 0 86 37 90 83 0 3 1 5 1 8 0 49-41 90-91 90-49 0-90-41-90-90z m146 7h-26c0 3-1 6-3 8l19 19c5-8 9-17 10-27z m-10-42l-19 19c2 2 3 5 3 8h26c-1-10-5-19-10-27z m-38 5c3 0 6 1 8 3l18-19c-7-5-16-9-26-10v26z m0 86c10-2 19-6 27-11l-19-19c-2 2-5 3-8 4v26z m-53-22l19-19c-2-2-3-5-4-8h-26c2 10 6 19 11 27z m38-4c-3-1-6-2-8-4l-19 19c8 5 17 9 27 11l0-26 0 0z m-27-76l19 19c2-2 5-3 8-3v-26c-10 1-19 5-27 10z m-22 38h26c1-3 2-6 4-8l-19-19c-5 8-9 17-11 27z m-701 8c0-4 0-8 0-12 6-44 44-79 90-79 47 0 86 37 90 83 0 3 0 5 0 8 0 49-40 90-90 90-50 0-90-41-90-90z m146 7h-26c-1 3-2 6-3 8l18 19c6-8 9-17 11-27z m-11-42l-19 19c2 2 3 5 4 8h26c-2-10-5-19-11-27z m-37 5c2 0 5 1 7 3l19-19c-8-5-17-9-26-10v26z m0 86c9-2 18-6 26-11l-18-19c-3 2-6 3-8 4v26z m-53-22l18-19c-1-2-3-5-3-8h-26c1 10 5 19 11 27z m37-4c-3-1-5-2-8-4l-18 19c7 5 16 9 26 11l0-26 0 0z m-26-76l18 19c3-2 5-3 8-3v-26c-10 1-19 5-26 10z m-22 38h26c1-3 2-6 3-8l-18-19c-6 8-10 17-11 27z m-140 55l11-55c2-13 13-22 26-22h52c-2 5-3 10-4 16 0 5-1 9-1 14 0 61 50 111 112 111 61 0 111-50 111-111 0-4 0-7 0-10-1-7-2-14-4-20h453c-1 5-2 10-3 16-1 5-1 9-1 14 0 61 50 111 111 111s112-50 112-111c0-4 0-7-1-10 0-7-1-14-3-20h13c0 0 22 72 14 105-6 25-21 36-21 36s1 37-19 76c-4 8-38 53-88 98-23 21-41 27-71 27-88 1-288 1-335 0-32 0-50-5-77-22-3-1-4-4-4-7 1-3 4-6 7-6h2l-89-86c0 0-35 0-46-1-58-2-162-11-225-59-9-6-14-16-16-27-1-13-2-29-2-29-10-5-16-16-14-28z m727 231h91c10 0 20-4 28-10 21-17 38-35 50-51 3-4 3-8 1-12-1-3-5-6-9-6l-161-2 0 81 0 0z m-49 0h6v-82l-6 0v82z m-328-86l87 86h199v-82l-211-3c0 1 1 2 1 3 0 14-10 25-23 25-12 0-22-11-22-25 0-1 0-3 0-4l-31 0z" horiz-adv-x="1000" />

<glyph glyph-name="004-jeep" unicode="&#xe855;" d="M152 328c-59 0-106-48-106-107 0-5 0-9 1-13 6-53 51-94 105-94 56 0 102 43 106 98 1 3 1 6 1 9 0 59-48 107-107 107z m-40-77l16-16c-1-2-2-5-2-7h-23c1 9 4 17 9 23z m-10-37h24c0-3 1-5 3-7l-17-16c-5 6-8 14-10 23z m43-43c-8 2-16 5-23 10l16 16c2-1 5-2 7-3l0-23 0 0z m0 77c-2-1-5-2-7-3l-16 16c7 5 15 8 23 10v-23z m14 23c9-2 17-5 24-10l-17-16c-2 1-4 2-7 3v23z m0-100v23c3 1 5 2 7 3l16-16c-6-5-14-8-23-10z m33 20l-16 16c1 2 2 4 3 7h23c-1-9-5-17-10-23z m-13 37c-1 2-2 5-3 7l16 16c5-7 9-14 10-23h-23z m631 100c-59 0-106-48-106-107 0-5 0-9 1-13 6-53 51-94 105-94 56 0 102 43 106 98 1 3 1 6 1 9 0 59-48 107-107 107z m-40-77l17-16c-2-2-3-5-3-7h-23c1 9 4 17 9 23z m-9-37h23c0-3 1-5 3-7l-17-16c-5 6-8 14-9 23z m42-43c-8 2-16 5-23 10l16 16c3-1 5-2 7-3v-23l0 0z m0 77c-2-1-4-2-7-3l-16 16c7 5 15 8 23 10v-23z m14 23c9-2 17-5 24-10l-17-16c-2 1-4 2-7 3v23z m0-100v23c3 1 5 2 7 3l16-16c-6-5-14-8-23-10z m33 20l-16 16c1 2 2 4 3 7h23c-1-9-5-17-10-23z m-13 37c-1 2-2 5-3 7l16 16c5-7 9-14 10-23h-23z m-71 358l-286-4c-8 0-15-7-15-16 0-8 7-15 15-15 0 0 0 0 1 0l286 4c8 0 15 7 15 15 0 9-7 16-16 16z m-113-362h-338c-8 0-15-7-15-16 0-8 7-15 15-15h338c9 0 16 7 16 15 0 9-7 16-16 16z m343 89c-4 4-9 6-15 6h-18l-18 197c-1 11-10 19-21 19l-505-8c-7 0-15-4-20-10l-67-86-219-13c-12-1-22-7-29-17l-13-18c0 0-21-8-26-12-5-5-15-21-15-21-2-3-2-6-1-9 2-3 5-5 8-5v-19h-18c-11 0-19-8-19-19v-34c0-13 10-24 23-24h13l32 89c3 8 10 13 19 13h112c7 0 13-3 16-8l76-99h394l56 94c3 6 10 10 17 10h103c7 0 14-4 18-11l54-93h19c21 0 38 15 42 35l6 27c1 5-1 11-4 16z m-481 98h-116v36h-23l35 47c1 2 4 3 6 3l118 2v-52l-20-36z m193 0h-126v88l152 3v-65l-26-26z m64 0v91l131 2c2 0 4-2 4-4l6-89h-141z" horiz-adv-x="1000" />

<glyph glyph-name="005-car" unicode="&#xe856;" d="M800 213c0-4 0-7 1-11 5-42 41-75 84-75 45 0 82 35 85 78 1 3 1 5 1 8 0 47-38 85-86 85-47 0-85-38-85-85z m138 7h-24c-1 3-2 5-3 8l17 17c6-7 9-16 10-25z m-10-40l-17 18c1 2 2 5 3 7h24c-1-9-4-18-10-25z m-35 4c2 1 5 2 7 3l18-17c-8-5-16-9-25-10l0 24 0 0z m0 82c9-1 18-5 25-11l-18-17c-2 1-4 3-7 3l0 25 0 0z m-50-21l17-17c-1-3-2-5-3-8h-25c2 9 5 18 11 25z m35-4c-3 0-5-2-8-3l-17 17c7 6 16 10 25 11l0-25 0 0z m-25-71l18 17c2-1 4-2 7-3v-24c-9 1-18 5-25 10z m-21 35h25c1-2 2-5 3-7l-17-18c-6 7-9 16-11 25z m-739 8c0-4 1-7 1-11 5-42 41-75 85-75 45 0 81 35 85 78 0 3 0 5 0 8 0 47-38 85-85 85s-86-38-86-85z m139 7h-25c0 3-1 5-3 8l18 17c5-7 9-16 10-25z m-10-40l-18 18c1 2 3 5 3 7h25c-1-9-5-18-10-25z m-36 4c3 1 5 2 8 3l17-17c-7-5-16-9-25-10l0 24 0 0z m0 82c10-1 18-5 25-11l-17-17c-3 1-5 3-8 3l0 25 0 0z m-50-21l17-17c-1-3-2-5-3-8h-24c1 9 5 18 10 25z m35-4c-2 0-5-2-7-3l-18 17c8 6 16 10 25 11v-25z m-24-71l17 17c2-1 5-2 7-3v-24c-9 1-17 5-24 10z m-21 35h24c1-2 2-5 4-7l-18-18c-5 7-9 16-10 25z m-120-12l69 1c-1 2-1 4-1 5-1 5-1 10-1 14 0 58 47 106 106 106 58 0 106-48 106-106 0-3 0-6-1-9 0-2 0-4 0-7l496 8c0 3-1 5-1 8 0 58 48 106 106 106 54 0 98-40 105-91 6 13 12 31 10 48-5 33-34 65-35 81s5 30 1 53c-4 23-44 98-84 124-30 18-51 31-139 36-126 7-211-1-287-24-45-13-198-93-245-119-55-30-77-35-115-49-44-16-72-51-83-77s-19-60-7-108z m704 235l-13 111c73-1 148-7 155-32 4-15-16-52-40-62-18-8-47-11-102-17z m-355 16l8 24c98 53 149 72 271 72 6 0 11 0 17 0l-14-119c-128-12-279-21-279-21 12 25-3 44-3 44z" horiz-adv-x="1000" />

<glyph glyph-name="006-car-suv" unicode="&#xe857;" d="M991 325l-7 1c3 94-12 113-29 170h9c5 0 8 4 8 8v9c0 4-3 8-8 8h-551c-8 0-16-3-23-7l-167-98c0 0-167-7-193-33-13-13-25-38-29-68-4-29 7-61 13-67 7-7 17-11 17-11l4-7c3-5 8-8 14-8l27 0v75c0 28 23 52 52 52h71c25 0 46-21 46-46v-76l1 0 436 6 7 0v64c0 28 23 52 52 52h71c25 0 46-21 46-46v-84l60 13c3 1 6 3 7 6l5 9 61 8c5 0 9 5 9 10v49c0 6-4 10-9 11z m-524 86c-2-2-3-2-5-2h-133c0 0 8 4 12 10 4 6 2 20-3 25-4 4-13 7-13 7l67 41c4 3 9 4 14 4h57c1 0 3-1 5-2 1-1 2-3 2-5l-1-73c0-2-1-4-2-5z m167 6c-5-6-11-9-18-9l-107-2c-2 0-4 0-5 2-1 1-2 3-2 5v76c0 4 3 7 7 7h118c4 0 7-3 7-6l5-54c1-7-1-14-5-19z m314 0c0-1-1-2-2-2l-217-2c-9 0-18 5-23 13l-22 61c-1 2-1 4 0 6 2 2 4 3 6 3h229c3 0 6-2 7-5l23-71c0-1 0-2-1-3z m-788-83c-42 0-77-35-77-77 0-4 0-7 1-10 4-38 37-67 76-67 41 0 74 31 77 70 0 2 0 4 0 7 0 42-34 77-77 77z m-38-48l15-16c-1-2-2-4-3-7h-22c1 9 5 16 10 23z m-10-36h23c0-3 1-5 2-7l-15-16c-5 7-9 14-10 23z m41-41c-8 1-15 4-22 9l16 16c2-2 4-2 6-3v-22z m0 73c-2 0-4-1-6-3l-16 16c6 5 14 8 22 10l0-23 0 0z m14 22c8-1 16-4 22-9l-15-16c-2 2-5 3-7 3l0 22 0 0z m0-95v22c2 1 4 1 7 3l15-16c-6-5-14-8-22-9z m32 18l-16 16c1 2 2 4 3 7h22c-1-9-4-16-9-23z m-13 36c-1 3-2 5-3 7l16 16c5-7 8-14 9-23h-22z m587 71c-42 0-77-35-77-77 0-4 0-7 1-10 5-38 37-67 76-67 41 0 74 31 77 70 0 2 0 4 0 7 0 42-34 77-77 77z m-38-48l15-16c-1-2-2-4-2-7h-23c2 9 5 16 10 23z m-10-36h23c0-3 1-5 2-7l-15-16c-5 7-9 14-10 23z m42-41c-9 1-16 4-23 9l16 16c2-2 4-2 7-3v-22z m0 73c-3 0-5-1-7-3l-16 16c6 5 14 8 23 10l0-23 0 0z m13 22c8-1 16-4 22-9l-15-16c-2 2-5 3-7 3l0 22 0 0z m0-95v22c2 1 5 1 7 3l15-16c-6-5-14-8-22-9z m32 18l-16 16c1 2 2 4 3 7h22c-1-9-4-16-9-23z m-13 36c-1 3-2 5-3 7l16 16c5-7 8-14 9-23h-22z" horiz-adv-x="1000" />

<glyph glyph-name="007-minivan-car" unicode="&#xe858;" d="M192 306c-42 0-76-34-76-76 0-3 0-6 1-9 4-38 36-67 75-67 40 0 73 31 76 70 0 2 0 4 0 6 0 42-34 76-76 76z m-38-47l16-16c-2-2-3-4-3-6h-22c1 8 4 16 9 22z m-9-35h22c0-3 1-5 3-7l-16-16c-5 7-8 14-9 23z m41-41c-9 1-16 4-23 9l16 16c2-2 4-2 7-3v-22z m0 73c-3-1-5-2-7-3l-16 15c7 5 14 8 23 9v-21z m13 21c8-1 16-4 22-9l-16-15c-2 1-4 2-6 3v21z m0-94v22c2 1 4 1 6 3l16-16c-7-5-14-8-22-9z m31 18l-15 16c1 2 2 4 2 7h22c-1-9-4-16-9-23z m-13 36c0 2-1 4-2 6l15 16c5-6 8-14 9-22h-22z m627 69c-42 0-76-34-76-76 0-3 1-6 1-9 5-38 37-67 75-67 40 0 73 31 76 70 0 2 0 4 0 6 0 42-34 76-76 76z m-38-47l16-16c-1-2-2-4-3-6h-22c1 8 5 16 9 22z m-9-35h22c1-3 2-5 3-7l-16-16c-4 7-8 14-9 23z m41-41c-8 1-16 4-22 9l15 16c2-2 4-2 7-3v-22z m0 73c-3-1-5-2-7-3l-15 15c6 5 14 8 22 9l0-21 0 0z m13 21c8-1 16-4 22-9l-15-15c-2 1-5 2-7 3v21z m0-94v22c2 1 5 1 7 3l15-16c-6-5-14-8-22-9z m31 18l-15 16c1 2 2 4 3 7h22c-2-9-5-16-10-23z m-12 36c-1 2-2 4-3 6l15 16c5-6 8-14 10-22h-22z m127 131c-1 17-6 33-14 48l-55 96c-9 16-25 26-43 27-92 5-372 16-460-8-60-16-211-115-211-115s-166-25-198-101c0 0-13-8-16-29-1-10 2-26 6-39 3-15 16-26 30-28l72-12c-1 4-2 8-2 12 0 4-1 8-1 11 0 48 39 87 87 87 48 0 87-39 87-87 0-2 0-5 0-7-1-9-3-17-6-24l8-1 479 13c-1 3-1 6-2 8 0 4 0 8 0 11 0 48 38 87 86 87 48 0 87-39 87-87 0-2 0-5 0-7 0-2-1-3-1-5l42 9c17 3 29 18 28 36l-3 105z m-276 153l11-110-168-7v118c49 1 105 0 157-1z m-425-124l-17-1c-5-1-9 2-10 7-2 4 0 9 3 11 10 7 22 16 35 25v-28c-8-7-11-14-11-14z m41 25c-1 0-2 0-3 0v34c34 22 73 43 106 54 15 5 42 8 76 10v-117l-144-6c0 0-5 26-35 25z m586 11c-5-9-14-14-25-15l-119-5-10 107c49-2 90-3 111-5 10 0 18-6 23-14l20-39c5-9 5-20 0-29z" horiz-adv-x="1000" />

<glyph glyph-name="008-coupe-car" unicode="&#xe859;" d="M171 350c-41 0-75-34-75-75 0-3 0-6 1-9 4-37 36-66 74-66 39 0 72 30 75 69 0 2 0 4 0 6 0 41-33 75-75 75z m-37-47l15-15c-1-2-2-4-3-7h-21c1 9 4 16 9 22z m-10-35h22c1-2 2-4 3-6l-15-15c-5 6-8 13-10 21z m41-40c-9 1-16 5-22 9l15 16c2-2 4-2 7-3v-22z m0 72c-3-1-5-2-7-3l-15 15c6 5 13 8 22 10v-22z m13 22c8-2 15-5 22-10l-16-15c-2 1-4 2-6 3v22z m0-94v22c2 1 4 1 6 3l15-16c-6-4-13-8-21-9z m31 18l-16 16c2 2 3 4 3 6h22c-1-8-5-15-9-22z m-13 35c0 3-1 5-3 7l16 15c4-6 8-13 9-22l-22 0 0 0z m595 68c-41 0-75-33-75-74 0-4 1-7 1-10 5-37 36-65 74-65 39 0 71 30 74 68 1 2 1 4 1 7 0 41-34 74-75 74z m-37-46l15-15c-1-2-2-5-3-7h-21c1 8 4 16 9 22z m-9-35h21c1-2 2-4 3-6l-15-16c-5 6-8 14-9 22z m40-40c-9 1-16 5-22 9l15 15c2-1 4-2 7-2v-22z m0 71c-3 0-5-1-7-2l-15 15c6 5 13 8 22 9v-22z m13 22c8-1 15-4 21-9l-15-15c-2 1-4 2-6 2v22z m0-93v22c2 0 4 1 6 2l15-15c-6-4-13-8-21-9z m30 18l-15 16c1 2 2 4 3 6h21c-1-8-4-16-9-22z m-12 35c-1 2-2 5-3 7l15 15c5-6 8-14 9-22h-21z m184 46c-1 10-4 19-9 28l-4 6-18 46c-3 9-11 15-21 16-17 1-47 4-75 5-98 52-281 105-435 47-32-11-122-57-122-57s-148 3-252-34c-42-15-68-56-63-100 0-8 2-16 3-22 2-10 10-18 20-19l66-7c-5 8-7 18-9 28 0 4-1 7-1 11 0 50 41 91 91 91 50 0 91-41 91-91 0-3 0-5-1-8-1-11-4-22-8-31h453l4 0c-4 8-7 18-8 27-1 4-1 8-1 12 0 49 40 90 90 90s90-41 90-90c0-3 0-6 0-8-1-7-2-15-5-21l11 0 70 10c12 1 23 8 29 19l7 12c5 9 7 18 7 28l0 12z m-249 90h-344c0 0 2 8-7 18 0 0 88 56 224 42 37-4 83-6 145-39l-18-21z" horiz-adv-x="1000" />

<glyph glyph-name="009-sportive-car" unicode="&#xe85a;" d="M217 345c-40 0-72-33-72-73 0-4 1-7 1-10 5-36 36-63 73-63 38 1 69 30 72 68 0 2 0 4 0 6 0 40-33 72-74 72z m-6-28l1-21c-3 0-5-1-7-2l-15 14c6 5 13 8 21 9z m-30-18l15-14c-1-2-2-5-2-7l-21 0c1 8 4 15 8 21z m-8-34l21 1c1-3 1-5 3-7l-15-15c-5 6-8 13-9 21z m18-30l15 15c2-1 4-2 6-2l0-21c-8 1-15 4-21 8z m72 44l-21 0c0 2-1 4-2 6l14 15c5-6 8-13 9-21z m-39 38c8-1 15-4 21-8l-14-15c-2 1-5 2-7 3l0 20z m1-90l0 21c2 1 4 1 6 3l15-15c-6-5-13-8-21-9z m30 18l-15 15c1 2 2 4 2 6l21 0c-1-8-4-15-8-21z m551 100c-41 0-73-33-73-73 1-4 1-7 1-10 5-36 36-63 73-63 38 1 69 30 72 68 0 2 0 4 0 6 0 40-33 72-73 72z m-6-28l0-21c-3 0-5-1-7-2l-15 14c6 5 14 8 22 9z m-30-18l15-14c-2-2-2-5-3-7l-21 0c1 8 4 15 9 21z m-9-34l21 1c1-3 2-5 3-7l-15-15c-4 6-8 13-9 21z m18-30l15 15c2-1 4-2 6-2l0-21c-7 1-15 4-21 8z m73 44l-21 0c-1 2-2 4-3 6l15 15c4-6 7-13 9-21z m-40 38c8-1 15-4 22-8l-15-15c-2 1-4 2-7 3l0 20z m1-90l0 21c2 1 4 1 6 3l15-15c-6-5-13-8-21-9z m30 18l-15 15c1 2 2 4 3 6l21 0c-1-8-4-15-9-21z m156 178c-1 2-3 2-5 2h-65c-2 0-4-1-5-3l-4-11c0 0-182 66-222 80-32 11-119 10-169 9-26-1-51-6-74-15-43-18-115-47-152-67-87-2-170-22-188-30-18-9-58-44-58-44l-47-26c-7-3-11-10-10-17l3-39c1-8 7-15 16-17l113-17 9 1c-5 9-9 20-10 31-1 4-1 8-1 11-1 49 39 89 87 90 49 0 89-40 89-88 0-2 0-5 0-7-1-11-4-21-8-31l428 1c-4 8-6 16-7 24-1 4-1 8-1 11 0 49 39 89 87 90 50 0 89-40 90-88 0-2 0-5-1-7 0-6-1-12-2-17l4 0 76 23c7 2 13 9 13 16l7 57c1 7 0 15-4 21l-13 22 20 16c1 0 2 2 2 3l3 11c0 2 0 4-1 5z m-346-10l-195-6c0 0 0 24-29 27l46 27c17 10 35 15 55 15 35 0 93-1 127-3 7 0 12-3 15-9 3-5 3-11 0-17-9-18-19-34-19-34z" horiz-adv-x="1000" />

<glyph glyph-name="quotation-mark" unicode="&#xe85b;" d="M431 774v-167c0-23-19-41-41-41-81 0-125-83-131-246h131c22 0 41-19 41-41v-353c0-22-19-41-41-41h-349c-23 0-41 19-41 41v353c0 78 8 150 23 213 16 65 41 122 73 170 33 48 75 86 124 113 49 26 106 40 170 40 22 0 41-19 41-41z m528-208c23 0 41 18 41 41v167c0 22-18 41-41 41-63 0-121-14-170-40-48-27-90-65-123-113-33-48-57-105-73-170-16-63-24-135-24-213v-353c0-22 19-41 41-41h349c23 0 41 19 41 41v353c0 22-18 41-41 41h-129c6 163 49 246 129 246z" horiz-adv-x="1000" />

<glyph glyph-name="energy" unicode="&#xe85d;" d="M772 496l-212-47 104 364c9 31-33 51-52 25l-414-588c-16-22 5-52 31-46l189 47-104-364c-8-31 33-51 52-25l436 588c16 21-3 52-30 46z m-19-470l-70 1 37 73c8 15 2 32-13 40-14 7-32 1-39-13l-59-115c-11-24 4-39 27-43l70-1-38-76c-7-14-1-32 13-39 15-7 32-1 39 13l59 117c10 20-4 42-26 43z m-456 821c-14 7-32 1-39-13l-59-117c-9-19 4-43 27-43h69l-37-75c-7-14-2-32 13-39 14-7 32-1 39 13l59 117c10 20-5 43-26 43h-70l37 75c7 14 2 32-13 39z" horiz-adv-x="1000" />

<glyph glyph-name="engine" unicode="&#xe85e;" d="M938 433c-35 0-63-28-63-62v-63h-42v79c0 22-9 43-24 59l-47 46c-15 16-37 25-59 25h-120v83h63c34 0 62 28 62 63s-28 62-62 62h-250c-35 0-63-28-63-62s28-63 63-63h62v-83h-78c-22 0-43-9-59-25l-59-59h-33c-34 0-62-28-62-62v-63h-42v63c0 34-28 62-62 62s-63-28-63-62v-250c0-35 28-63 63-63s62 28 62 63v62h42v-62c0-35 28-63 62-63h33l59-59c16-15 37-24 59-24h282c22 0 43 9 59 24l88 89c15 15 24 37 24 59v36h42v-62c0-35 28-63 63-63 34 0 62 28 62 63v250c0 34-28 62-62 62z" horiz-adv-x="1000" />

<glyph glyph-name="gearshift" unicode="&#xe85f;" d="M1-1h792v-151h-792z m0 0m708 100c0 52-41 93-93 93h-128v300c58 33 97 95 97 166 0 106-86 192-192 192s-192-86-192-192c0-71 39-133 97-166v-300h-121c-51 0-93-41-93-93v-41h625z m0 0" horiz-adv-x="1000" />

<glyph glyph-name="helmet" unicode="&#xe860;" d="M400 468c-28-39-19-91 18-120l130-98-39 255h-38c-28 0-55-14-71-37z m-185-562h614l21 75h-656z m398 306h384c-13 113-40 211-79 293h-350z m-230 89c-31 23-50 57-56 94-6 38 3 76 25 107 27 38 72 61 119 61h415c-32 52-71 95-116 130-110 87-233 105-318 105-120 0-234-47-319-133-86-85-133-199-133-320 0-114 42-222 119-305h837l34 113h-412z" horiz-adv-x="1000" />

<glyph glyph-name="motorcycle" unicode="&#xe861;" d="M854 440c-24 0-47-6-67-17l-39 47c17 11 36 19 56 23 17 4 33 5 50 5 22 0 43 9 59 25 17 16 27 40 27 67 0 150-127 260-260 260h-33c-17 0-30-13-30-29s13-30 30-30h33c8 0 17-1 25-2v-57c-17-1-33-7-48-14 0 1-1 1-1 1-24-11-44-29-59-51l-67-100c-5-7-12-12-20-13-59-9-111-47-138-102 25-38 40-82 40-130h-60c0 97-79 175-176 175s-176-78-176-175 79-176 176-176c76 0 141 49 165 117h276c16 0 30 13 30 29 0 17 1 33 5 50 8 34 26 65 50 91l39-47c-21-26-34-58-34-94 0-80 66-146 147-146s146 66 146 146-66 147-146 147z m-678-234c-65 0-117 52-117 117s52 117 117 117 117-53 117-117h-88c-16 0-29 13-29 29 0 16-13 29-29 29s-30-13-30-29c0-48 40-88 88-88h72c-21-35-58-58-101-58z m678 0c-49 0-88 39-88 87 0 17 5 33 13 47l52-65c10-13 28-15 41-4 12 10 15 28 4 41l-51 64c9 3 18 5 29 5 48 0 87-39 87-88s-39-87-87-87z m0 0m-356 419l50 75c16 24 37 44 61 59-32 20-69 32-109 32-69 0-133-35-171-91l47-29c38-22 79-37 122-46z m0 0m-152-4l-188 112h-129c-16 0-29-13-29-29 0-81 66-147 147-147 58 0 119-1 184-58 0 1 0 1 1 2 22 36 54 65 91 84-26 10-53 22-77 36z m0 0" horiz-adv-x="1000" />

<glyph glyph-name="palette" unicode="&#xe862;" d="M500 850c-276 0-500-224-500-500s224-500 500-500c46 0 83 37 83 83 0 22-8 41-21 56-13 15-21 34-21 55 0 47 37 84 83 84h98c154 0 278 124 278 278 0 245-224 444-500 444z m-306-500c-46 0-83 37-83 83s37 84 83 84 84-38 84-84-37-83-84-83z m167 222c-46 0-83 37-83 84s37 83 83 83 83-37 83-83-37-84-83-84z m278 0c-46 0-83 37-83 84s37 83 83 83 83-37 83-83-37-84-83-84z m167-222c-47 0-84 37-84 83s37 84 84 84 83-38 83-84-37-83-83-83z" horiz-adv-x="1000" />

<glyph glyph-name="menu-grid-style" unicode="&#xe863;" d="M844 850h-149c-86 0-156-70-156-156v-149c0-86 70-156 156-156h149c86 0 156 70 156 156v149c0 86-70 156-156 156z m78-305c0-43-35-78-78-78h-149c-43 0-78 35-78 78v149c0 43 35 78 78 78h149c43 0 78-35 78-78v-149z m-617 305h-149c-86 0-156-70-156-156v-149c0-86 70-156 156-156h149c86 0 156 70 156 156v149c0 86-70 156-156 156z m78-305c0-43-35-78-78-78h-149c-43 0-78 35-78 78v149c0 43 35 78 78 78h149c43 0 78-35 78-78v-149z m-78-234h-149c-86 0-156-70-156-156v-149c0-86 70-156 156-156h149c86 0 156 70 156 156v149c0 86-70 156-156 156z m78-305c0-43-35-78-78-78h-149c-43 0-78 35-78 78v149c0 43 35 78 78 78h149c43 0 78-35 78-78v-149z m578 39c-22 0-39-17-39-39 0-43-35-78-78-78h-149c-43 0-78 35-78 78v149c0 43 35 78 78 78h149c31 0 59-19 71-47 9-20 32-29 52-20 20 8 29 32 20 51-25 57-81 94-143 94h-149c-86 0-156-70-156-156v-149c0-86 70-156 156-156h149c86 0 156 70 156 156 0 22-17 39-39 39z" horiz-adv-x="1000" />

<glyph glyph-name="menu-list-style" unicode="&#xe864;" d="M856 850h-711c-80 0-145-65-145-144s65-145 145-145h711c79 0 144 65 144 145s-65 144-144 144z m0-211h-711c-37 0-67 30-67 67s30 66 67 66h711c36 0 66-30 66-66s-30-67-66-67z m0-144h-711c-80 0-145-65-145-145s65-144 145-144h711c79 0 144 64 144 144s-65 145-144 145z m0-211h-711c-37 0-67 29-67 66s30 66 67 66h711c36 0 66-29 66-66s-30-66-66-66z m0-145h-711c-80 0-145-65-145-145s65-144 145-144h515c22 0 39 17 39 39 0 22-17 39-39 39h-515c-37 0-67 30-67 66s30 67 67 67h711c36 0 66-30 66-67s-30-66-66-66c-22 0-40-17-40-39 0-22 18-39 40-39 79 0 144 65 144 144s-65 145-144 145z" horiz-adv-x="1000" />

<glyph glyph-name="020-gears" unicode="&#xe865;" d="M941 200v300c35 12 59 44 59 82 0 49-39 88-88 88s-88-39-88-88c0-38 25-70 59-82v-121h-176v121c34 12 59 44 59 82 0 49-40 88-88 88s-88-39-88-88c0-38 24-70 58-82v-121h-175v121c34 12 58 44 58 82 0 49-39 88-88 88s-87-39-87-88c0-38 24-70 58-82v-121h-297v121c34 12 59 44 59 82 0 49-40 88-88 88s-88-39-88-88c0-38 25-70 59-82v-150c0-16 13-29 29-29h326v-121c-34-12-58-44-58-82 0-49 39-88 87-88s88 39 88 88c0 38-24 70-58 82v121h175v-121c-34-12-58-44-58-82 0-49 39-88 88-88s88 39 88 88c0 38-25 70-59 82v121h176v-121c-34-12-59-44-59-82 0-49 40-88 88-88s88 39 88 88c0 38-24 70-59 82z m-853 412c16 0 29-13 29-30 0-16-13-29-29-29s-29 13-29 29c0 17 13 30 29 30z m355 0c17 0 30-13 30-30 0-16-13-29-30-29s-29 13-29 29c0 17 13 30 29 30z m0-524c-16 0-29 13-29 30 0 16 13 29 29 29 0 0 0 0 0 0s0 0 0 0c17 0 30-13 30-29 0-17-13-30-30-30z m235 524c16 0 29-13 29-30 0-16-13-29-29-29s-30 13-30 29c0 17 14 30 30 30z m0-524c-16 0-30 13-30 30 0 16 14 29 30 29 0 0 0 0 0 0s0 0 0 0c16 0 29-13 29-29 0-17-13-30-29-30z m234 524c16 0 29-13 29-30 0-16-13-29-29-29s-29 13-29 29c0 17 13 30 29 30z m0-524c-16 0-29 13-29 30 0 16 13 29 29 29 0 0 0 0 0 0s0 0 0 0c16 0 29-13 29-29 0-17-13-30-29-30z" horiz-adv-x="1000" />

<glyph glyph-name="021-gearshift" unicode="&#xe866;" d="M925 20v660c34 12 58 44 58 82 0 49-39 88-87 88-49 0-88-39-88-88 0-38 24-70 58-82v-303h-205v303c34 12 59 44 59 82 0 49-40 88-88 88-49 0-88-39-88-88 0-38 25-70 59-82v-303h-205v303c34 12 58 44 58 82 0 49-39 88-88 88-48 0-88-39-88-88 0-38 25-70 59-82v-303h-176c-16 0-29 14-29 30v273c34 12 58 44 58 82 0 49-39 88-87 88-49 0-88-39-88-88 0-38 24-70 58-82v-273c0-49 40-88 88-88h176v-299c-34-12-59-44-59-82 0-49 40-88 88-88 49 0 88 39 88 88 0 38-24 70-58 82v299h205v-299c-34-12-59-44-59-82 0-49 39-88 88-88 48 0 88 39 88 88 0 38-25 70-59 82v299h205v-299c-34-12-58-44-58-82 0-49 39-88 88-88 48 0 87 39 87 88 0 38-24 70-58 82z" horiz-adv-x="1000" />

<glyph glyph-name="022-loan" unicode="&#xe867;" d="M226 44c-36 0-65-29-65-65s29-65 65-65 64 29 64 65-29 65-64 65z m0-97c-18 0-32 14-32 32 0 18 14 32 32 32 18 0 32-14 32-32 0-18-14-32-32-32z m548 97c-35 0-64-29-64-65s29-65 64-65 65 29 65 65-29 65-65 65z m0-97c-18 0-32 14-32 32 0 18 14 32 32 32 18 0 33-14 33-32 0-18-15-32-33-32z m-209 710c-18 0-33 14-33 32s15 32 33 32c17 0 32-14 32-32h32c0 30-21 55-48 62v35h-33v-35c-27-7-48-32-48-62 0-36 29-65 65-65 17 0 32-14 32-32s-15-32-32-32c-18 0-33 14-33 32h-32c0-30 21-55 48-62v-35h33v35c27 7 48 32 48 62 0 36-29 65-64 65z m368-411l-38 6c-47 96-130 170-230 205 7 4 14 8 21 13l-19 26c-30-22-65-33-102-33-98 0-178 80-178 177s80 178 178 178 177-80 177-178c0-37-11-72-33-102l26-19c26 36 39 78 39 121 0 116-94 210-209 210s-210-94-210-210c0-70 35-133 89-171-106-24-199-90-257-184l-94-18c-37-6-66-30-82-62h-2l-3-12c0-1 0-1 0-2-4-11-6-23-6-35v-14-50-161h106c20-48 66-81 120-81s100 33 119 81h310c19-48 65-81 119-81s101 33 120 81h106v235c0 40-28 73-67 80z m-901-104c0 11 1 21 3 31h13c9 0 17-8 17-16v-17c0-9-8-16-17-16h-16v18z m65-163c0-5 0-11 1-16h-66v64h74c-6-14-9-31-9-48z m129-97c-54 0-97 44-97 97s43 97 97 97 97-44 97-97-44-97-97-97z m548 0c-53 0-97 44-97 97s44 97 97 97 97-44 97-97-43-97-97-97z m194 81h-66c1 5 1 11 1 16 0 17-3 34-9 48h74v-64z m0 97h-93c-24 29-60 48-101 48-40 0-77-19-100-48h-77v-33h58c-6-14-10-31-10-48 0-5 1-11 1-16h-292c0 5 1 11 1 16 0 17-4 34-10 48h220v33h-239c-23 29-59 48-100 48-41 0-77-19-101-48h-93v32h16c27 0 49 22 49 48v17c0 26-22 48-48 48 12 16 29 27 50 31l96 17 11 0 5 8c59 102 163 170 280 183 23-8 48-13 74-13 17 0 34 2 51 6 111-25 206-102 253-206l5-9 9-1 44-7c24-4 41-24 41-48v-106z m-164 217c-62 86-162 138-268 138-112 0-214-56-275-150l-3-4v-72h549v83l-3 5z m-449-56h-65v30c1 1 1 2 2 2h47c9 0 16-7 16-16v-16z m226 0h-194v16c0 27-22 49-48 49h-22c56 61 135 96 219 96 15 0 30-1 45-3v-158z m193 0h-161v151c64-17 121-56 161-110v-41z" horiz-adv-x="1000" />

</font>
</defs>
</svg>
